<?xml version="1.0" encoding="UTF-8"?>
<svg id="Calque_1" xmlns="http://www.w3.org/2000/svg" version="1.1" viewBox="0 0 99 150">
  <!-- Generator: Adobe Illustrator 30.0.0, SVG Export Plug-In . SVG Version: 2.1.1 Build 48)  -->
  <defs>
    <style>
      .st0 {
        fill: #fff;
      }

      .st1 {
        fill: #020102;
      }
    </style>
  </defs>
  <path class="st0" d="M77.2,75.97s10.28-7.44,10.57,5.95c.29,13.41-15.09,12.55-15.09,12.55l4.52-18.5h0Z"/>
  <path class="st1" d="M81.39,72.05c1.51-.12,3.15.31,4.4,1.94,1.19,1.57,1.88,4.07,1.96,7.75.08,3.82-.86,6.7-2.37,8.87-1.51,2.15-3.5,3.48-5.46,4.31-1.96.82-3.9,1.17-5.34,1.31-.72.08-1.33.1-1.76.1h-.69s0-.06.06-1.23l-.06,1.23-1.35-.08,4.31-19.58h-2l2.74-2.21.67.98-.67-.98h0l.02-.02s.06-.04.1-.08c.08-.06.2-.16.35-.25.29-.2.7-.47,1.21-.76.98-.55,2.37-1.17,3.84-1.29h.04ZM84.08,75.58c-.67-.88-1.53-1.16-2.53-1.08-1.04.08-2.11.55-2.98,1.04-.43.23-.78.47-1.02.65,0,0-.02,0-.04.02l-3.9,17.68c.23,0,.49-.04.76-.06,1.31-.14,3.03-.45,4.72-1.16,1.68-.72,3.31-1.82,4.5-3.52,1.17-1.66,1.98-4.01,1.9-7.32-.08-3.45-.72-5.29-1.45-6.25h.02Z"/>
  <path class="st1" d="M76.11,94.94c0-.61,1.08,1.57,1.7,1.53-.04-.22-.65-3.07-.69-3.25-.04-.18-.08-.33-.12-.43,0-.06-.02-.08-.04-.12v-.02h0c-.2-.63.18-1.25.82-1.45.65-.18,1.31.18,1.51.78h0v.04s.02.08.04.14c.04.12.08.29.14.49.1.41.22.98.31,1.59.08.61.14,1.29.08,1.94-.06.61-.25,1.39-.86,1.96-.22.2-.63.51-1.21.47-.63-.04-1-.43-1.17-.67-.16-.23-.25-.51-.31-.7-.06-.22-.1-.43-.12-.65-.06-.41-.08-.84-.08-1.14v-.55h0"/>
  <path class="st1" d="M79.87,76.65c.98-.76,2.47-1.35,4.13-.29l-.86,1.8c-.9-.57-1.64-.29-2.27.2-.31.25-.59.55-.78.8-.1.12-.16.22-.22.29-.02.04-.04.06-.04.08h0s-.04-.04-.74-.57c-.5-.38-.74-.57-.74-.57h0s0-.02.02-.04c.02-.04.04-.08.08-.14.08-.1.18-.25.29-.41.25-.33.63-.76,1.12-1.14l.02-.02Z"/>
  <path class="st0" d="M25.11,75.79s-11.3.65-.78,16.84l1.19-2.86v-9.59l-.41-4.39h0Z"/>
  <path class="st1" d="M26.17,77.89l.23,3.25v9.85l-.06.18-1.7,5.19-1.12-2.17c-4.19-8.14-4.29-12.84-2.8-15.56.74-1.35,1.8-2.08,2.66-2.45.2-.08,1.68-.51,1.86-.57l.92,2.27v.02ZM24.11,78.26c-.55.25-1.16.7-1.59,1.49-.8,1.47-1.21,4.62,1.72,11.1l.08-.25v-9.34s-.22-3-.22-3Z"/>
  <path class="st1" d="M23.62,79.43c.35-.04.67.06.88.18s.41.27.55.43c.14.14.25.29.33.39.04.06.08.1.1.14l.02.04h0l-.59.33-.59.33h0v-.02s-.04-.04-.06-.08c-.06-.08-.14-.16-.22-.25s-.18-.16-.23-.2-.06,0,0-.02l-.2-1.29v.02Z"/>
  <path class="st1" d="M44.37,24.66c2.47,2.43,2.43,5.34,1.84,7.5-.29,1.08-.72,2-1.08,2.64-.18.33-.33.59-.45.78-.06.1-.12.16-.14.22,0,.02-.04.04-.04.06h0l-1.7-1.21h0s0-.02.02-.04c.02-.04.06-.1.12-.16.1-.14.23-.37.37-.65.29-.55.67-1.33.9-2.19.47-1.74.43-3.78-1.29-5.5l1.49-1.47-.04.02Z"/>
  <path class="st1" d="M81.71,64.16s-6.6,16.21-6.26,31.79c.12,5.7-2.37,11.53-5.85,16.11-4.21,5.52-11.39,10.94-23.36,10.45-23.83-.96-21.75-17.39-22.16-22.91-.74-10.1,2.62-27.04-1.08-34.03-6.36-12.06-3.19-35.89,9.93-38.25,8.38-1.51,11.3,6.64,11.3,6.64,0,0,9.46-3.41,14.6,1.61,8.87,8.61,10.02,9.26,17.72,15.31s5.15,13.29,5.15,13.29h0l.02-.02Z"/>
  <path class="st0" d="M51.21,55.37c3.29.25,18.97,1.41,21.22,20.93,2.27,19.54-11.86,14.7-17.72,12.71s-11.67-3.99-17.42-1.92-7.54,7.56-10.2,4.76c-3.6-3.8-.8-22.26,5.95-29.88,6.83-7.67,14.86-6.85,18.15-6.62h0l.02.02Z"/>
  <path class="st1" d="M84,70.72c-2.62.04-4.52.96-5.78,1.86-.63.45-1.1.9-1.39,1.23-.16.16-.25.29-.33.39-.04.04-.06.08-.08.1h0l-1.84-1.08h0s0-.02.04-.04c.02-.04.06-.1.12-.16.1-.14.25-.31.43-.51.37-.41.96-.96,1.72-1.51,1.55-1.1,3.88-2.21,7.07-2.27l.04,2.04v-.06Z"/>
  <path class="st1" d="M52.97,68.14c2.82-.86,6.32-.86,9.18,0,1.35.41,2.43.06,2.84-.74s0-1.66-1.7-2.11c-3.54-.96-8.07-.96-11.53.08-1.64.49-1.96,1.25-1.57,2.04.39.76,1.43,1.16,2.78.74Z"/>
  <path class="st1" d="M31.86,68.14c2.47-.86,5.54-.86,8.03,0,1.19.41,2.13.06,2.49-.74s0-1.66-1.49-2.11c-3.09-.96-7.07-.96-10.1.08-1.45.49-1.7,1.27-1.37,2.04.35.78,1.25,1.16,2.43.74h.02Z"/>
  <path class="st1" d="M57.59,79.53c1.04,0,1.88-1.68,1.88-3.74s-.84-3.74-1.88-3.74-1.88,1.68-1.88,3.74.84,3.74,1.88,3.74Z"/>
  <path class="st1" d="M38.72,79.53c1.04,0,1.88-1.68,1.88-3.74s-.84-3.74-1.88-3.74-1.88,1.68-1.88,3.74.84,3.74,1.88,3.74Z"/>
  <path class="st1" d="M41.5,68.31c.39-.1.74.35.78.98l-.69.16.69-.16h0v.16c0,.12.02.27.04.47.02.41.06.98.1,1.68.06,1.39.12,3.29.04,5.27-.06,1.96-.23,4.07-.63,5.87-.39,1.78-1.06,3.45-2.15,4.15-.35.23-.76-.06-.9-.67-.14-.59.04-1.27.39-1.49.57-.37,1.02-1.29,1.35-2.8.33-1.49.49-3.33.55-5.21.06-1.86,0-3.64-.04-4.99-.02-.67-.06-1.21-.08-1.61,0-.2-.02-.33-.04-.43v-.14h0c-.06-.65.22-1.21.59-1.31v.06Z"/>
  <path class="st0" d="M54.29,93.36s-10.48,14.61-19.33-.35l19.33.35Z"/>
  <path class="st1" d="M40.91,60.82h14.78-16.97s2.19,0,2.19,0Z"/>
  <path class="st1" d="M39.11,59.23l2.09.55c1.19.31,2.39.39,3.58.25l4.8-.57.53-.06c1.21-.1,2.43,0,3.62.29l2.27.55-.08.84-2.27-.55c-1.33-.31-2.68-.39-4.01-.23l-4.8.57c-1.23.16-2.49.06-3.72-.25l-2.09-.55.1-.84h-.02Z"/>
</svg>