<?xml version="1.0" encoding="UTF-8"?>
<svg id="Calque_1" xmlns="http://www.w3.org/2000/svg" version="1.1" viewBox="0 0 113.19 65.54">
  <!-- Generator: Adobe Illustrator 29.8.1, SVG Export Plug-In . SVG Version: 2.1.1 Build 2)  -->
  <defs>
    <style>
      .st0, .st1, .st2, .st3, .st4, .st5, .st6, .st7, .st8 {
        stroke: #000;
      }

      .st0, .st2 {
        fill: none;
      }

      .st0, .st2, .st3, .st4, .st5, .st6, .st7, .st8 {
        stroke-width: .75px;
      }

      .st0, .st4, .st5 {
        stroke-linejoin: round;
      }

      .st0, .st5 {
        stroke-linecap: round;
      }

      .st1 {
        stroke-width: .25px;
      }

      .st1, .st2, .st3, .st6, .st7, .st8 {
        stroke-miterlimit: 10;
      }

      .st3, .st9 {
        fill: #d8d9ff;
      }

      .st4, .st6 {
        fill: #ffe5c9;
      }

      .st5, .st7 {
        fill: #fff;
      }

      .st8 {
        fill: #ffd9ff;
      }
    </style>
  </defs>
  <g>
    <path class="st7" d="M27.88,50.41c0,2.52,2.04,4.58,4.58,4.58h48.16c2.52,0,4.58-2.04,4.58-4.58v-31.4H27.88v31.4Z"/>
    <g>
      <path class="st9" d="M80.62,9.86h-48.16c-2.52,0-4.58,2.04-4.58,4.58v4.58h57.32v-4.58c0-2.52-2.04-4.58-4.58-4.58Z"/>
      <path class="st2" d="M80.62,9.86h-48.16c-2.52,0-4.58,2.04-4.58,4.58v4.58h57.32v-4.58c0-2.52-2.04-4.58-4.58-4.58Z"/>
    </g>
  </g>
  <path class="st7" d="M26.87,22.5c-3.23,0-6.03,1.87-7.39,4.57-.28-.04-.58-.09-.87-.09-2.63,0-4.84,1.69-5.66,4.04-.12,0-.23-.03-.36-.03-2.22,0-4.01,1.79-4.01,4.01s1.79,4.01,4.01,4.01h14.28c4.56,0,8.26-3.69,8.26-8.26s-3.69-8.26-8.26-8.26h0Z"/>
  <g>
    <path class="st1" d="M39.09,34.48h-.5v-5.4c0-.49.02-.99.07-1.53-.05.05-.1.1-.15.14s-.58.46-1.56,1.23l-.28-.36,2.01-1.51h.44v7.42h-.01Z"/>
    <path class="st1" d="M45.02,34.48h-.5v-5.4c0-.49.02-.99.07-1.53-.05.05-.1.1-.15.14s-.58.46-1.56,1.23l-.28-.36,2.01-1.51h.44v7.42h-.01Z"/>
    <path class="st1" d="M52.85,30.74c0,1.3-.2,2.26-.6,2.9s-.99.94-1.8.94-1.37-.32-1.77-.96-.6-1.6-.6-2.86.2-2.25.59-2.87.98-.93,1.78-.93,1.38.32,1.78.96.61,1.6.61,2.84h.01ZM48.63,30.74c0,1.15.15,2,.45,2.55s.75.82,1.37.82,1.1-.28,1.4-.85.44-1.41.44-2.52-.14-1.92-.44-2.49-.75-.85-1.4-.85-1.1.28-1.39.85-.43,1.4-.43,2.49h0Z"/>
    <path class="st1" d="M58.78,30.74c0,1.3-.2,2.26-.6,2.9s-.99.94-1.8.94-1.37-.32-1.77-.96-.6-1.6-.6-2.86.2-2.25.59-2.87.98-.93,1.78-.93,1.38.32,1.78.96.61,1.6.61,2.84h.01ZM54.55,30.74c0,1.15.15,2,.45,2.55s.75.82,1.37.82,1.1-.28,1.4-.85.44-1.41.44-2.52-.14-1.92-.44-2.49-.75-.85-1.4-.85-1.1.28-1.39.85-.43,1.4-.43,2.49h0Z"/>
    <path class="st1" d="M62.81,34.48h-.5v-5.4c0-.49.02-.99.07-1.53-.05.05-.1.1-.15.14s-.58.46-1.56,1.23l-.28-.36,2.01-1.51h.44v7.42h-.01Z"/>
    <path class="st1" d="M70.63,30.74c0,1.3-.2,2.26-.6,2.9s-.99.94-1.8.94-1.37-.32-1.77-.96-.6-1.6-.6-2.86.2-2.25.59-2.87.98-.93,1.78-.93,1.38.32,1.78.96.61,1.6.61,2.84h.01ZM66.42,30.74c0,1.15.15,2,.45,2.55s.75.82,1.37.82,1.1-.28,1.4-.85.44-1.41.44-2.52-.14-1.92-.44-2.49-.75-.85-1.4-.85-1.1.28-1.39.85-.43,1.4-.43,2.49h0Z"/>
    <path class="st1" d="M39.09,46.95h-.5v-5.4c0-.49.02-.99.07-1.53-.05.05-.1.1-.15.14s-.58.46-1.56,1.23l-.28-.36,2.01-1.51h.44v7.42h-.01Z"/>
    <path class="st1" d="M46.91,43.22c0,1.3-.2,2.26-.6,2.9s-.99.94-1.8.94-1.37-.32-1.77-.96-.6-1.6-.6-2.86.2-2.25.59-2.87.98-.93,1.78-.93,1.38.32,1.78.96c.4.64.61,1.6.61,2.84h.01ZM42.7,43.22c0,1.15.15,2,.45,2.55s.75.82,1.37.82,1.1-.28,1.4-.85.44-1.41.44-2.52-.14-1.92-.44-2.49-.75-.85-1.4-.85-1.1.28-1.39.85-.43,1.4-.43,2.49h0Z"/>
    <path class="st1" d="M52.85,43.22c0,1.3-.2,2.26-.6,2.9s-.99.94-1.8.94-1.37-.32-1.77-.96-.6-1.6-.6-2.86.2-2.25.59-2.87.98-.93,1.78-.93,1.38.32,1.78.96c.4.64.61,1.6.61,2.84h.01ZM48.63,43.22c0,1.15.15,2,.45,2.55s.75.82,1.37.82,1.1-.28,1.4-.85.44-1.41.44-2.52-.14-1.92-.44-2.49-.75-.85-1.4-.85-1.1.28-1.39.85-.43,1.4-.43,2.49h0Z"/>
    <path class="st1" d="M58.78,43.22c0,1.3-.2,2.26-.6,2.9s-.99.94-1.8.94-1.37-.32-1.77-.96-.6-1.6-.6-2.86.2-2.25.59-2.87.98-.93,1.78-.93,1.38.32,1.78.96c.4.64.61,1.6.61,2.84h.01ZM54.55,43.22c0,1.15.15,2,.45,2.55s.75.82,1.37.82,1.1-.28,1.4-.85.44-1.41.44-2.52-.14-1.92-.44-2.49-.75-.85-1.4-.85-1.1.28-1.39.85-.43,1.4-.43,2.49h0Z"/>
    <path class="st1" d="M62.81,46.95h-.5v-5.4c0-.49.02-.99.07-1.53-.05.05-.1.1-.15.14s-.58.46-1.56,1.23l-.28-.36,2.01-1.51h.44v7.42h-.01Z"/>
    <path class="st1" d="M68.74,46.95h-.5v-5.4c0-.49.02-.99.07-1.53-.05.05-.1.1-.15.14s-.58.46-1.56,1.23l-.28-.36,2.01-1.51h.44v7.42h-.01Z"/>
  </g>
  <path class="st3" d="M39.81,44.43h0c1.75-1.2.5-3.93-1.55-3.38h0c-1.52.41-2.84-1.11-2.23-2.55h0c.83-1.96-1.71-3.57-3.13-2-1.06,1.17-2.99.6-3.26-.95h0c-.36-2.09-3.37-2.09-3.72,0-.26,1.55-2.19,2.12-3.25.96-1.43-1.57-3.96.07-3.13,2.02h0c.62,1.45-.69,2.97-2.21,2.57h0c-2.05-.54-3.3,2.2-1.54,3.38h0c1.3.88,1.02,2.88-.48,3.35h0c-2.02.65-1.59,3.64.54,3.68h0c1.57.04,2.41,1.86,1.41,3.08h0c-1.35,1.64.64,3.91,2.44,2.81h0c1.34-.82,3.04.26,2.86,1.83h0c-.24,2.11,2.64,2.95,3.57,1.04h0c.69-1.41,2.7-1.42,3.39-.01h0c.94,1.91,3.82,1.05,3.57-1.06h0c-.19-1.56,1.5-2.66,2.85-1.84h0c1.82,1.1,3.79-1.18,2.42-2.82h0c-1-1.21-.17-3.05,1.4-3.09h0c2.12-.06,2.54-3.03.51-3.69h0c-1.5-.48-1.79-2.47-.49-3.35h.01ZM30.31,56.37c-4.67,1.39-9.57-1.28-10.96-5.95s1.28-9.57,5.95-10.96,9.57,1.28,10.96,5.95-1.28,9.57-5.95,10.96Z"/>
  <path class="st6" d="M91.42,52.37h0c1.64-.52,1.29-2.94-.43-2.98h0c-1.27-.03-1.94-1.52-1.14-2.5h0c1.09-1.33-.5-3.17-1.98-2.27-1.09.66-2.46-.22-2.31-1.49h0c.2-1.7-2.14-2.39-2.9-.85-.56,1.15-2.19,1.15-2.74,0-.75-1.55-3.09-.86-2.9.85h0c.15,1.27-1.22,2.14-2.31,1.49h0c-1.48-.9-3.07.95-1.98,2.27h0c.81.98.13,2.47-1.14,2.5h0c-1.72.04-2.07,2.46-.43,2.98h0c1.21.39,1.44,2,.39,2.72h0c-1.42.96-.42,3.18,1.26,2.74h0c1.23-.33,2.29.91,1.8,2.08h0c-.68,1.58,1.38,2.9,2.53,1.63h0c.86-.94,2.43-.48,2.63.78h0c.28,1.69,2.72,1.69,3.02,0h0c.22-1.26,1.78-1.72,2.63-.78h0c1.16,1.27,3.21-.04,2.53-1.63h0c-.5-1.17.57-2.4,1.8-2.08h0c1.66.45,2.68-1.77,1.26-2.74h0c-1.05-.71-.82-2.33.39-2.72h-.03ZM81.3,59.43c-3.94,0-7.13-3.2-7.13-7.13s3.2-7.13,7.13-7.13,7.13,3.2,7.13,7.13-3.2,7.13-7.13,7.13Z"/>
  <circle class="st8" cx="33.77" cy="14.51" r="1.94"/>
  <circle class="st8" cx="40.58" cy="14.51" r="1.94"/>
  <circle class="st8" cx="47.97" cy="14.51" r="1.94"/>
  <g>
    <polygon class="st7" points="93.38 9.84 93.38 29.9 71.01 29.9 71.01 3 86.13 3 93.38 9.84"/>
    <polygon class="st4" points="86.13 9.96 86.13 3 93.38 9.84 86.13 9.96"/>
    <line class="st0" x1="74.01" y1="9.14" x2="81.59" y2="9.14"/>
    <line class="st0" x1="74.01" y1="12.56" x2="90.83" y2="12.56"/>
    <line class="st0" x1="74.01" y1="16.45" x2="90.83" y2="16.45"/>
    <line class="st0" x1="74.01" y1="20.34" x2="90.83" y2="20.34"/>
    <line class="st0" x1="74.01" y1="24.24" x2="90.83" y2="24.24"/>
    <polyline class="st0" points="93.38 17.19 103.42 17.19 103.42 12.23"/>
    <circle class="st5" cx="103.42" cy="12.23" r="1.79"/>
    <circle class="st5" cx="100.93" cy="23.52" r="1.86"/>
    <line class="st0" x1="93.38" y1="23.52" x2="99.08" y2="23.52"/>
    <circle class="st5" cx="63.46" cy="6.45" r="1.86"/>
    <line class="st0" x1="71.01" y1="6.45" x2="65.31" y2="6.45"/>
  </g>
</svg>