<?xml version="1.0" encoding="UTF-8"?>
<svg id="Calque_1" xmlns="http://www.w3.org/2000/svg" version="1.1" viewBox="0 0 50 50">
  <!-- Generator: Adobe Illustrator 29.8.2, SVG Export Plug-In . SVG Version: 2.1.1 Build 3)  -->
  <defs>
    <style>
      .st0 {
        fill: none;
      }

      .st0, .st1, .st2 {
        stroke-miterlimit: 10;
        stroke-width: .75px;
      }

      .st0, .st1, .st2, .st3 {
        stroke: #000;
      }

      .st1, .st3 {
        fill: #d8d9ff;
      }

      .st2 {
        fill: #fff;
      }

      .st3 {
        stroke-miterlimit: 10;
        stroke-width: .75px;
      }
    </style>
  </defs>
  <path class="st3" d="M35.31,30.9h10.01v12.67c0,2.76-2.24,5-5,5h0c-2.76,0-5-2.24-5-5v-12.67h0Z" transform="translate(-16.29 40.14) rotate(-45)"/>
  <rect class="st3" x="26.09" y="31.32" width="13.55" height="2.8" transform="translate(-13.51 32.82) rotate(-45)"/>
  <path class="st1" d="M18.16,19.66l1.61,9.33c.14.81.63,1.51,1.35,1.91l7.41,4.16,6.46-6.46-3.73-7.64c-.39-.81-1.16-1.37-2.06-1.5l-9.43-1.35c-.94-.21-1.78.6-1.61,1.54Z"/>
  <line class="st0" x1="18.53" y1="18.48" x2="25.56" y2="25.52"/>
  <circle class="st2" cx="26.08" cy="26.13" r="1.6"/>
  <line class="st0" x1="3.57" y1="23.86" x2="23.95" y2="3.47"/>
  <path class="st0" d="M13.69,33.98c-5.59-5.59-5.59-14.66,0-20.23,5.59-5.58,14.66-5.59,20.23,0"/>
  <rect class="st3" x="11.33" y="11.39" width="4.69" height="4.69" transform="translate(-5.71 13.7) rotate(-45)"/>
  <rect class="st3" x="11.3" y="31.57" width="4.13" height="4.13" transform="translate(-19.87 19.3) rotate(-45)"/>
  <rect class="st3" x="31.52" y="11.34" width="4.13" height="4.13" transform="translate(.36 27.68) rotate(-45)"/>
  <circle class="st1" cx="3.57" cy="23.86" r="1.6"/>
  <circle class="st1" cx="23.95" cy="3.47" r="1.6"/>
</svg>