<?xml version="1.0" encoding="UTF-8"?>
<svg id="Calque_1" xmlns="http://www.w3.org/2000/svg" version="1.1" viewBox="0 0 1180.22 961.57">
  <!-- Generator: Adobe Illustrator 29.8.2, SVG Export Plug-In . SVG Version: 2.1.1 Build 3)  -->
  <defs>
    <style>
      .st0, .st1, .st2, .st3, .st4, .st5, .st6, .st7, .st8 {
        stroke-miterlimit: 10;
        stroke-width: 4px;
      }

      .st0, .st9, .st10 {
        fill: #d7dcf1;
      }

      .st0, .st3, .st5, .st6, .st7 {
        stroke: #020102;
      }

      .st1, .st2, .st11, .st9, .st4, .st8 {
        stroke: #000;
      }

      .st1, .st12, .st7 {
        fill: #ffe5c9;
      }

      .st2, .st13 {
        fill: #d8d9ff;
      }

      .st11, .st9 {
        stroke-linejoin: round;
        stroke-width: 3px;
      }

      .st11, .st3, .st6, .st8 {
        fill: none;
      }

      .st14, .st4 {
        fill: #fff;
      }

      .st6 {
        stroke-linecap: round;
      }

      .st15 {
        fill: #020102;
      }
    </style>
  </defs>
  <path class="st4" d="M849.07,160.82c-32.3,0-60.3,18.7-73.91,45.7-2.8-.4-5.8-.9-8.7-.9-26.3,0-48.4,16.9-56.6,40.4-1.2,0-2.3-.3-3.6-.3-22.2,0-40.1,17.9-40.1,40.1s17.9,40.1,40.1,40.1h142.81c45.6,0,82.61-36.9,82.61-82.61s-36.9-82.61-82.61-82.61h0v.1Z"/>
  <path class="st5" d="M494.19,436.37c-9.57,1.05-189.24,35.39-258.87,185.97-2.05,4.43-.46,9.68,3.74,12.17,15.1,8.99,60.52,15.83,114.34,27.33,37.26,7.96,45.16,21.09,53.46,24.09,4.38,1.58,6.96,6.1,6.09,10.67l-39.75,252.81,207.38-57.35,204.83,58.34c5.23,0,9.47-4.24,9.47-9.47v-214.51c0-5.84,5.23-10.27,11-9.35,25.31,4.05,88.14-21.48,108.87-71.49,26.32-63.5-138.36-199.83-258.15-209.26-113.26-8.91-157.15-.97-161.61-.08-.27.05-.52.09-.8.12Z"/>
  <path class="st9" d="M758.35,176.14l-7.44,16.24-18.39,1.64,2.18-20.96,20.33-1.64c2.55-.21,4.38,2.41,3.31,4.73Z"/>
  <path class="st9" d="M668.63,235.38l82.29-43.01s-15.58.31-16.21-19.32l-82.91,46.13,16.83,16.21Z"/>
  <path class="st12" d="M704.74,190.51s-6.69,9.32-4.2,14.95,54.46-29.66,54.46-29.66l-.78-3.15-20.33,1.64-29.15,16.22Z"/>
  <path class="st15" d="M759.28,177.24s-8.45,1.51-4.88-6.98l3.58,1.14,1.31,5.83Z"/>
  <path class="st7" d="M484.95,221.97s-40.5-29.87-41.66,23.9,59.47,50.3,59.47,50.3l-17.81-74.2Z"/>
  <path class="st6" d="M483.31,284.35s-4.63,15.67-.13,20.05c3.61,3.51,3.21-9.44,3.21-9.44"/>
  <path class="st3" d="M479,231.57s-9.95-14.89-23.25-7.65"/>
  <path class="st10" d="M483.81,237.15s8.24,53.34-16.44,49.68c0,0,16.21,8.77,29.02,7.84l-12.58-57.52Z"/>
  <path class="st0" d="M693.27,221.97s39.85,2.67,2.77,69.67l-4.2-11.81v-39.68l1.43-18.18Z"/>
  <path class="st3" d="M692.08,237.15s4.08-6.8,8.24-6.23"/>
  <path class="st7" d="M518.53,349.35c.2-1.57.95,70.46-35.13,101.61,0,0,5.27-4.55,81.52,43.96,76.25,48.51,99.01,38.39,112.82-12.38,0,0-4.94-5.46-15.89-14.22s-4.76-87.08-4.76-87.08l-138.55-31.88Z"/>
  <path class="st10" d="M518.76,374.21s30.01,61.26,88.81,73.7c23.52,4.97,45.82-12.37,46.97-36.38.45-9.33-.19-20.55-2.75-33.85-9.77-50.83-133.03-3.48-133.03-3.48Z"/>
  <path class="st11" d="M668.63,235.38l82.29-43.01s-15.58.31-16.21-19.32l-82.91,46.13,16.83,16.21Z"/>
  <path class="st3" d="M617.01,55.79s-18.44-25.52,0-43.96"/>
  <path class="st15" d="M466.21,176.01s26.37,65.38,25.02,128.15c-.5,22.95,9.49,46.47,23.42,64.92,16.82,22.27,45.59,44.12,93.33,42.18,95.24-3.88,86.96-70.07,88.58-92.34,2.97-40.74-10.47-109,4.28-137.19,25.46-48.63,12.76-144.69-39.66-154.26-33.47-6.11-45.14,26.79-45.14,26.79,0,0-37.79-13.7-58.4,6.49-35.44,34.71-40.04,37.31-70.83,61.68s-20.6,53.57-20.6,53.57Z"/>
  <path class="st3" d="M518.53,349.35c.2-1.57.95,70.46-35.13,101.61,0,0,5.27-4.55,81.52,43.96,76.25,48.51,99.01,38.39,112.82-12.38,0,0-4.94-5.46-15.89-14.22s-4.76-87.08-4.76-87.08l-138.55-31.88Z"/>
  <path class="st3" d="M488.23,221.89s-11.34-18.04-35.97-18.5"/>
  <g>
    <path class="st12" d="M624.41,195.19c.8-10.03,9.67-32.89,16.22-48.63-21.05-12.17-41.44-10.1-51.25-9.33-13.09,1.02-75.4,5.71-84.41,85.09s47.19,59.78,70.48,51.68c19.83-6.9,39.52-13.81,59.07-10.52l4.19-2.59c-22.26-8.69-14.3-65.7-14.3-65.7Z"/>
    <path class="st10" d="M685.26,285.5c14.31-15.43,3.21-90.51-23.7-121.42-6.81-7.81-13.91-13.46-20.93-17.52-6.55,15.74-15.42,38.6-16.22,48.63,0,0-7.96,57.01,14.3,65.7l-4.19,2.59c3.41.57,6.82,1.45,10.23,2.7,22.91,8.42,29.94,30.72,40.51,19.32Z"/>
  </g>
  <path class="st14" d="M652.1,305.99s-12.58,41.44-71.53,0h71.53Z"/>
  <path class="st14" d="M194.67,950.41"/>
  <path class="st15" d="M583.08,189.82c-10.8-4.15-24.23-4.17-35.16-.02-5.21,1.98-9.33.29-10.89-3.65-.5.13,0,0,0,0-1.56-3.94.05-8.04,6.52-10.24,13.57-4.62,30.92-4.69,44.19.38,6.33,2.42,7.48,6.14,5.99,9.89.37.59,0,0,0,0-1.5,3.75-5.5,5.63-10.65,3.65Z"/>
  <path class="st15" d="M667.72,189.8c-9.63-4.22-21.61-4.24-31.36-.02-4.65,2.01-8.32.29-9.71-3.71-.45.13,0,0,0,0-1.4-4,.05-8.17,5.81-10.4,12.1-4.69,27.58-4.76,39.42.39,5.64,2.45,6.68,6.24,5.34,10.04.33.6,0,0,0,0-1.34,3.81-4.91,5.72-9.5,3.71Z"/>
  <g>
    <path class="st12" d="M862.53,639.78l41.59-9c-16.22,2.01-69.12,10.53-87.84,37.96-22.23,32.57-31.52,158.32-31.52,158.32,0,0-68.54-32.97-129.74-25.85-61.2,7.12-71.07,115.42-71.07,115.42,0,0,115.75,33.19,214.96,34.64,193.08-20.17,63.61-311.49,63.61-311.49Z"/>
    <path class="st10" d="M879.38,942.47c100.83-29.96,53.15-286.07,29.53-312.22,0,0-1.75.15-4.79.52l-41.59,9s129.47,291.32-63.61,311.49c29.43.43,57.4-1.94,80.46-8.79Z"/>
  </g>
  <path class="st3" d="M908.91,632.26s-1.75.15-4.79.52c-7.89.98-24.45,3.5-41.54,8.99h-.05s0,.02,0,.02c-18.04,5.79-36.65,14.88-46.26,28.96-22.23,32.57-31.52,158.32-31.52,158.32,0,0-68.54-32.97-129.74-25.85-61.2,7.12-71.07,115.42-71.07,115.42,0,0,115.75,33.19,214.96,34.64,29.43.43,57.4-1.94,80.46-8.79,100.83-29.96,53.15-286.07,29.53-312.22Z"/>
  <ellipse class="st15" cx="565.4" cy="220.45" rx="8.94" ry="12.36"/>
  <ellipse class="st15" cx="638.71" cy="220.45" rx="8.94" ry="12.36"/>
  <path class="st10" d="M546.63,240.76s26.27,13.42,42.42,0h-42.42Z"/>
  <path class="st3" d="M624.91,194.01s-8.26,46.1,9.84,63.43"/>
  <path class="st7" d="M241.89,629.93s-61.98,255.12,9.54,297.82c71.52,42.7,182.28,25.77,234.93,17.82,22.31-3.37,54.69-6.49,97.6-28.94,73.12-38.25,104.28-65.32,200.8-89.56,0,0-25.34-87.93-357.8-31.69,0,0,25.08-72.17-6.96-102.68-33.38-31.78-78.77-41.55-178.1-62.77Z"/>
  <path class="st10" d="M684.68,862.13s-176.22,88.06-220.08,27.65c-43.86-60.41,48.71-107.73,82.04-109.96,33.33-2.23,191.2-15.12,238.13,49.25l-100.08,33.06Z"/>
  <path class="st7" d="M343.7,831.96c32.64-18.61,83.26-36.59,83.26-36.59"/>
  <path class="st7" d="M684.68,862.13"/>
  <path class="st7" d="M696.2,856.81s14.03-28.18,48.29-43.14"/>
  <path class="st10" d="M331.97,650.43s-44.75,157.02,11.73,181.53c0,0,77.29-38.12,85.96-37.7s0-93.23,0-93.23l-38.21-27.35-41.09-18.02-18.39-5.24Z"/>
  <path class="st3" d="M241.89,629.93s-61.98,255.12,9.54,297.82c71.52,42.7,182.28,25.77,234.93,17.82,22.31-3.37,54.69-6.49,97.6-28.94,73.12-38.25,104.28-65.32,200.8-89.56,0,0-25.34-87.93-357.8-31.69,0,0,25.08-72.17-6.96-102.68-33.38-31.78-78.77-41.55-178.1-62.77Z"/>
  <path class="st7" d="M429.66,794.27s-89.06-62.93-69.48-68.52,57.86,32.45,57.86,32.45c0,0-95.49-91.97-68.51-89.03,26.98,2.94,66.09,54.09,66.09,54.09,0,0-50.21-94.25-29.98-85.02s44.02,62.79,44.02,62.79c0,0-6.83-79.94,4.74-78.43,11.57,1.51,53.93,162.92,53.93,162.92,0,0-33.8,4.64-58.67,8.74Z"/>
  <line class="st3" x1="582.06" y1="314.08" x2="656.21" y2="314.08"/>
  <path class="st12" d="M704.91,230.3s4.45,20.15.08,37.26c0,0,6.25-15.37,4.65-26.54,0,0-.15-3.39-1.6-6.64s-3.13-4.08-3.13-4.08Z"/>
  <polygon class="st4" points="1063.89 659.78 731.23 659.78 731.23 786.08 847.59 786.08 835.03 814.24 874.09 786.08 1063.89 786.08 1063.89 659.78"/>
  <polygon class="st1" points="815.14 335.37 815.14 415.4 761.88 450.97 815.14 450.97 815.14 540.4 1053.37 540.4 1053.37 335.37 815.14 335.37"/>
  <g>
    <path class="st4" d="M138.72,473.68c0,11.45,9.27,20.82,20.82,20.82h219.06c11.45,0,20.82-9.27,20.82-20.82v-142.8H138.72v142.8Z"/>
    <g>
      <path class="st13" d="M378.59,289.26h-219.06c-11.45,0-20.82,9.27-20.82,20.82v20.82h260.69v-20.82c0-11.45-9.27-20.82-20.82-20.82Z"/>
      <path class="st8" d="M378.59,289.26h-219.06c-11.45,0-20.82,9.27-20.82,20.82v20.82h260.69v-20.82c0-11.45-9.27-20.82-20.82-20.82Z"/>
    </g>
  </g>
  <rect class="st2" x="94.41" y="708.64" width="223.22" height="85.31"/>
  <polygon points="845.57 496.13 924.72 438.92 980.84 490.1 1022.93 457.59 1022.93 517.27 845.57 517.27 845.57 496.13"/>
  <circle cx="982.72" cy="399.99" r="17.59"/>
  <rect class="st8" x="845.57" y="361.65" width="177.36" height="152.26"/>
  <polyline class="st4" points="309.6 387.06 352.59 416.88 309.6 443.87"/>
  <polyline class="st4" points="219.34 443.87 176.35 414.06 219.34 387.06"/>
  <line class="st8" x1="281.42" y1="370.15" x2="247.52" y2="452.87"/>
  <g>
    <path d="M167.99,775.77c-6.99,0-12.48-2.15-16.35-6.56-3.87-4.41-5.92-10.54-5.92-18.4s2.04-14.42,6.13-18.93,9.68-6.78,16.89-6.78c4.2,0,8.28.75,12.16,2.15l-1.18,3.98c-4.2-1.4-7.85-2.15-10.97-2.15-6.02,0-10.54,1.83-13.55,5.59-3.01,3.77-4.63,9.04-4.63,15.92s1.51,11.73,4.63,15.49c3.12,3.77,7.42,5.59,12.91,5.59,4.41,0,8.5-.75,12.37-2.37v4.09c-3.12,1.51-7.21,2.26-12.26,2.26l-.22.11Z"/>
    <path d="M222.43,762.22c0,4.41-1.61,7.75-4.95,10.11-3.33,2.37-8.07,3.55-14.09,3.55-6.56,0-11.73-.97-15.49-3.01v-4.84c4.95,2.47,10.11,3.66,15.49,3.66,4.84,0,8.5-.75,10.97-2.37,2.47-1.61,3.77-3.77,3.77-6.35s-.97-4.52-3.01-6.24-5.27-3.33-9.79-4.95c-4.84-1.72-8.28-3.33-10.33-4.52s-3.44-2.69-4.52-4.3c-1.08-1.61-1.51-3.55-1.51-5.81,0-3.66,1.51-6.56,4.63-8.71,3.12-2.15,7.32-3.23,12.91-3.23s10.22.97,14.95,3.01l-1.61,4.09c-4.84-1.94-9.25-3.01-13.34-3.01s-7.1.65-9.47,1.94-3.55,3.12-3.55,5.49c0,2.58.86,4.63,2.69,6.13,1.83,1.51,5.38,3.23,10.65,5.16,4.41,1.61,7.64,3.01,9.57,4.3s3.55,2.69,4.52,4.3c.97,1.61,1.51,3.55,1.51,5.7v-.11Z"/>
    <path d="M265.35,762.22c0,4.41-1.61,7.75-4.95,10.11-3.33,2.37-8.07,3.55-14.09,3.55-6.56,0-11.73-.97-15.49-3.01v-4.84c4.95,2.47,10.11,3.66,15.49,3.66,4.84,0,8.5-.75,10.97-2.37s3.77-3.77,3.77-6.35-.97-4.52-3.01-6.24-5.27-3.33-9.79-4.95c-4.84-1.72-8.28-3.33-10.33-4.52s-3.44-2.69-4.52-4.3-1.51-3.55-1.51-5.81c0-3.66,1.51-6.56,4.63-8.71,3.12-2.15,7.32-3.23,12.91-3.23s10.22.97,14.95,3.01l-1.61,4.09c-4.84-1.94-9.25-3.01-13.34-3.01s-7.1.65-9.47,1.94-3.55,3.12-3.55,5.49c0,2.58.86,4.63,2.69,6.13s5.38,3.23,10.65,5.16c4.41,1.61,7.64,3.01,9.57,4.3s3.55,2.69,4.52,4.3c.97,1.61,1.51,3.55,1.51,5.7v-.11Z"/>
  </g>
  <g>
    <path d="M852.7,750.33v-29.54c0-4.56-.97-7.87-2.9-9.94-1.93-2.07-4.97-3.17-8.97-3.17-5.38,0-9.39,1.38-12.01,4.14s-3.73,7.18-3.73,13.39v25.12h-4.14v-65.15h4.14v20.7l-.28,5.8h.28c1.66-2.76,3.86-4.69,6.49-5.94s5.8-1.79,9.66-1.79c10.35,0,15.46,5.52,15.46,16.56v29.81h-4.14.14Z"/>
    <path d="M883.48,747.57c2.62,0,4.97-.28,6.9-.69v3.31c-2.07.69-4.28.97-6.9.97-4,0-7.04-1.1-8.83-3.17-1.79-2.07-2.9-5.52-2.9-10.08v-29.4h-6.76v-2.48l6.76-1.93,2.07-10.35h2.07v11.04h13.39v3.59h-13.39v28.85c0,3.45.55,6.07,1.79,7.73,1.24,1.66,3.17,2.48,5.8,2.48v.14Z"/>
    <path d="M957.05,750.33v-29.81c0-4.42-.83-7.73-2.62-9.66-1.79-1.93-4.42-3.04-8.01-3.04-4.69,0-8.14,1.24-10.35,3.86-2.21,2.62-3.31,6.63-3.31,12.15v26.64h-4.28v-31.06c0-7.73-3.45-11.46-10.49-11.46-4.83,0-8.28,1.38-10.49,4.14-2.21,2.76-3.31,7.18-3.31,13.39v25.12h-4.14v-45.55h3.45l.83,6.21h.28c1.24-2.21,3.04-4,5.38-5.25,2.35-1.24,4.83-1.79,7.59-1.79,7.18,0,11.73,2.76,13.8,8.14h.14c1.52-2.62,3.45-4.56,5.94-5.94,2.48-1.38,5.38-2.07,8.56-2.07,4.97,0,8.7,1.38,11.18,4s3.73,6.9,3.73,12.7v29.81h-4.14l.28-.55Z"/>
    <path d="M980.1,750.33h-4.14v-65.15h4.14v65.15Z"/>
  </g>
  <path class="st1" d="M1135.37,667.85h0c11.57-3.67,9.1-20.75-3.03-21.03h0c-8.96-.21-13.69-10.73-8.04-17.64h0c7.69-9.39-3.53-22.37-13.97-16.02-7.69,4.66-17.36-1.55-16.3-10.51h0c1.41-12-15.1-16.86-20.46-6-3.95,8.11-15.45,8.11-19.33,0-5.29-10.94-21.8-6.07-20.46,6h0c1.06,8.96-8.61,15.1-16.3,10.51h0c-10.44-6.35-21.66,6.7-13.97,16.02h0c5.72,6.92.92,17.43-8.04,17.64h0c-12.14.28-14.61,17.36-3.03,21.03h0c8.54,2.75,10.16,14.11,2.75,19.19h0c-10.02,6.77-2.96,22.44,8.89,19.33h0c8.68-2.33,16.16,6.42,12.7,14.68h0c-4.8,11.15,9.74,20.46,17.85,11.5h0c6.07-6.63,17.15-3.39,18.56,5.5h0c1.98,11.93,19.19,11.93,21.31,0h0c1.55-8.89,12.56-12.14,18.56-5.5h0c8.19,8.96,22.65-.28,17.85-11.5h0c-3.53-8.26,4.02-16.94,12.7-14.68h0c11.71,3.18,18.91-12.49,8.89-19.33h0c-7.41-5.01-5.79-16.44,2.75-19.19h-.21.35ZM1063.96,717.67c-27.8,0-50.31-22.58-50.31-50.31s22.58-50.31,50.31-50.31,50.31,22.58,50.31,50.31-22.58,50.31-50.31,50.31Z"/>
</svg>