<?xml version="1.0" encoding="UTF-8"?>
<svg id="Calque_1" xmlns="http://www.w3.org/2000/svg" version="1.1" viewBox="0 0 596.61 732.64">
  <!-- Generator: Adobe Illustrator 30.0.0, SVG Export Plug-In . SVG Version: 2.1.1 Build 48)  -->
  <defs>
    <style>
      .st0, .st1 {
        fill: #fff;
      }

      .st2 {
        stroke: #fff;
      }

      .st2, .st3, .st4, .st1, .st5, .st6 {
        stroke-miterlimit: 10;
      }

      .st2, .st3, .st5, .st6 {
        fill: none;
      }

      .st3, .st4, .st1, .st5 {
        stroke-width: 4px;
      }

      .st3, .st4, .st1, .st5, .st6 {
        stroke: #020102;
      }

      .st5 {
        stroke-linecap: round;
      }

      .st7 {
        fill: #020102;
      }
    </style>
  </defs>
  <path class="st1" d="M549.58,514.04l46.34,226.42h-211.82l36.86-231.16,128.61,4.74h.01Z"/>
  <path class="st1" d="M40.92,478.53S-12.88,691.2,1.86,740.46h143.34l77.68-234.71-181.95-27.21h0Z"/>
  <path class="st4" d="M230.81,339.22c-7.32.82-139.16,17.11-192.39,134.65-1.57,3.46-.35,7.56,2.86,9.5,11.54,7.02,40.76,22.88,81.9,31.85,28.48,6.21,41.91,10.15,48.26,12.49,3.35,1.23,5.32,4.76,4.65,8.33l-37.92,204.42h315.23c4,0,7.24-3.31,7.24-7.39v-167.44c0-4.56,4-8.02,8.41-7.3,19.35,3.16,66.56,6.45,82.41-32.59,20.12-49.57-104.94-179.2-196.51-186.56-86.57-6.96-120.12-.76-123.53-.06-.21.04-.4.07-.61.09v.02h0Z"/>
  <path class="st1" d="M249.42,271.29c.15-1.23.73,55-26.85,79.32,0,0,4.03-3.55,62.31,34.32,58.28,37.87,75.68,29.97,86.24-9.66,0,0-3.78-4.26-12.15-11.1s-3.64-67.97-3.64-67.97l-105.9-24.89h0v-.02Z"/>
  <path class="st7" d="M209.42,135.98s20.16,51.03,19.12,100.03c-.38,17.91,7.25,36.27,17.9,50.68,12.86,17.38,34.85,34.44,71.34,32.92,72.8-3.03,66.47-54.7,67.71-72.08,2.27-31.8-8-85.08,3.27-107.09,19.46-37.96,9.75-112.94-30.32-120.41-25.58-4.77-34.51,20.91-34.51,20.91,0,0-28.89-10.69-44.64,5.07-27.09,27.09-30.61,29.12-54.14,48.15-23.54,19.02-15.75,41.82-15.75,41.82h.02Z"/>
  <path class="st3" d="M382.98,171.85s30.46,2.08,2.12,54.38l-3.21-9.22v-30.97l1.09-14.19Z"/>
  <path class="st0" d="M303.57,105.71c-10,.8-57.63,4.46-64.52,66.42-6.89,61.96,36.07,46.66,53.87,40.34s35.46-12.67,52.97-6.1c17.51,6.57,22.89,23.98,30.96,15.08,10.94-12.04,2.45-70.65-18.12-94.78-20.78-24.37-45.17-21.76-55.18-20.96h.02Z"/>
  <path class="st3" d="M223.75,171.85s-30.96-23.32-31.84,18.66c-.89,41.97,45.46,39.26,45.46,39.26l-13.61-57.92h-.01Z"/>
  <path class="st5" d="M222.5,220.55s-3.54,12.23-.1,15.65c2.76,2.74,2.45-7.37,2.45-7.37"/>
  <path class="st5" d="M330.35,150.96s-6.08,44.5,10.93,51.28"/>
  <path class="st7" d="M298.76,146.76c-8.26-3.24-18.52-3.26-26.88-.02-3.98,1.55-7.13.23-8.32-2.85-1.19-3.07.04-6.28,4.98-7.99,10.37-3.61,23.64-3.66,33.78.3,4.84,1.89,5.72,4.79,4.58,7.72-1.15,2.93-4.2,4.39-8.14,2.85h0Z"/>
  <path class="st7" d="M363.45,146.75c-7.36-3.29-16.52-3.31-23.97,0-3.55,1.57-6.36.23-7.42-2.9-1.07-3.12.04-6.38,4.44-8.12,9.25-3.66,21.08-3.72,30.13.3,4.31,1.91,5.11,4.87,4.08,7.84-1.02,2.97-3.75,4.47-7.26,2.9h0Z"/>
  <path class="st7" d="M285.25,180.32c3.77,0,6.83-4.32,6.83-9.65s-3.06-9.65-6.83-9.65-6.83,4.32-6.83,9.65,3.06,9.65,6.83,9.65Z"/>
  <path class="st7" d="M341.29,180.32c3.77,0,6.83-4.32,6.83-9.65s-3.06-9.65-6.83-9.65-6.83,4.32-6.83,9.65,3.06,9.65,6.83,9.65Z"/>
  <path class="st6" d="M287.63,126.16l7.23-1.14c4.32-.68,8.68-.86,13.01-.52l15.3,1.2c3.88.3,7.76.12,11.61-.55l6.7-1.16"/>
  <path class="st6" d="M278.48,119.97l7.23-1.14c4.32-.68,8.68-.86,13.01-.52l15.3,1.2c3.88.3,7.76.12,11.61-.55l6.7-1.16"/>
  <path class="st2" d="M291.85,230.99s36.83,11.99,60.89-.8"/>
  <path class="st2" d="M319.51,246.17c-2.9.29-2.16-.67,15.78,0"/>
  <path class="st3" d="M219.2,179.35s-7.61-11.62-17.77-5.97"/>
  <path class="st3" d="M382.07,183.71s3.12-5.31,6.3-4.86"/>
  <path class="st3" d="M324.7,42.13s-14.1-19.92,0-34.31"/>
  <path class="st3" d="M226.25,171.8s-8.67-14.08-27.49-14.44"/>
</svg>