<?xml version="1.0" encoding="UTF-8"?>
<svg id="Calque_1" xmlns="http://www.w3.org/2000/svg" version="1.1" viewBox="0 0 50 50">
  <!-- Generator: Adobe Illustrator 29.8.2, SVG Export Plug-In . SVG Version: 2.1.1 Build 3)  -->
  <defs>
    <style>
      .st0 {
        fill: #d8d9ff;
      }

      .st0, .st1 {
        stroke: #000;
        stroke-miterlimit: 10;
        stroke-width: .75px;
      }

      .st1 {
        fill: #ffe5c9;
      }
    </style>
  </defs>
  <path class="st1" d="M22.87,17.64c-.17,0-1.41.2-1.61.26-.99.29-1.76,1.57-1.9,2.55-.28,1.91-.21,6.49-.04,8.49.19,2.34,1.88,3.89,4.32,3.08,1.43-.48,6.04-3.31,7.48-4.27.28-.18,1.25-.83,1.37-1.03.94-.3,1.93-.9,2.79-1.39,2.28-1.31,4.09-2.28,4.86-5.01.2,2.97.66,9.84-.32,12.4-.45,1.16-1.29,2.01-2.29,2.69-2.17,1.47-8.16,5.09-10.44,5.94s-3.67.42-5.76-.71c-2.44-1.32-7.8-4.14-9.73-5.76-1.07-.9-1.78-2.22-1.91-3.61-.36-4.17.25-8.9.05-13.13.51-1.97,2.24-3.8,4.23-4.23,2.66-.58,6.12,1.69,8.37,3.11.27.17.55.2.53.63Z"/>
  <path class="st0" d="M40.14,20.31c-.77,2.73-2.58,3.7-4.86,5.01-.86.5-1.85,1.09-2.79,1.39.03-.05.33-1.07.35-1.17.17-1.19-.18-2.06-1.06-2.84-1.28-1.14-5.91-3.68-7.6-4.5-.27-.13-1.09-.57-1.3-.57.02-.43-.26-.46-.53-.63-2.25-1.42-5.71-3.68-8.37-3.11-.04-.43.7-.66,1.02-.85,1.9-1.14,7.39-4.62,9.24-4.82.99-.11,2.13.09,3.04.48,2.47,1.07,7.62,4.16,9.97,5.7,2.68,1.76,2.7,2.95,2.9,5.91Z"/>
</svg>