<?xml version="1.0" encoding="UTF-8"?>
<svg id="Calque_1" xmlns="http://www.w3.org/2000/svg" version="1.1" viewBox="0 0 113.19 65.54">
  <!-- Generator: Adobe Illustrator 29.8.1, SVG Export Plug-In . SVG Version: 2.1.1 Build 2)  -->
  <defs>
    <style>
      .st0 {
        stroke-width: .25px;
      }

      .st0, .st1, .st2, .st3, .st4 {
        stroke: #000;
        stroke-miterlimit: 10;
      }

      .st1 {
        fill: none;
      }

      .st1, .st2, .st3, .st4 {
        stroke-width: .75px;
      }

      .st2 {
        fill: #d8d9ff;
      }

      .st3 {
        fill: #ffe5c9;
      }

      .st4 {
        fill: #fff;
      }
    </style>
  </defs>
  <rect class="st4" x="25.39" y="13.38" width="59.3" height="44.1" rx="8.24" ry="8.24"/>
  <rect class="st2" x="75.08" y="45.12" width="7.14" height="12.61" transform="translate(-13.32 70.67) rotate(-45)"/>
  <rect class="st2" x="68.5" y="45.41" width="9.67" height="2" transform="translate(-11.33 65.45) rotate(-45)"/>
  <path class="st2" d="M62.85,37.09l1.15,6.66c.1.58.45,1.08.96,1.36l5.29,2.97,4.61-4.61-2.66-5.45c-.28-.58-.83-.98-1.47-1.07l-6.73-.96c-.67-.15-1.27.43-1.15,1.1Z"/>
  <line class="st2" x1="63.11" y1="36.25" x2="68.13" y2="41.27"/>
  <circle class="st4" cx="68.5" cy="41.71" r="1.14"/>
  <line class="st1" x1="52.44" y1="40.09" x2="66.98" y2="25.54"/>
  <path class="st1" d="M59.66,47.31c-3.99-3.99-3.99-10.46,0-14.44s10.46-3.99,14.44,0"/>
  <rect class="st2" x="57.98" y="31.19" width="3.35" height="3.35" transform="translate(-5.77 51.81) rotate(-45)"/>
  <rect class="st2" x="57.95" y="45.6" width="2.95" height="2.95" transform="translate(-15.88 55.8) rotate(-45)"/>
  <rect class="st2" x="72.39" y="31.15" width="2.95" height="2.95" transform="translate(-1.44 61.79) rotate(-45)"/>
  <circle class="st2" cx="52.44" cy="40.09" r="1.14"/>
  <rect class="st2" x="18.54" y="29.07" width="36.22" height="13.2" rx="1.68" ry="1.68" transform="translate(.98 72.32) rotate(-90)"/>
  <circle class="st2" cx="66.98" cy="25.54" r="1.14"/>
  <path class="st3" d="M79.49,12.46H30.58c-3.39,0-6.14,2.75-6.14,6.14v33.73c0,3.39,2.75,6.14,6.14,6.14h48.91c3.39,0,6.14-2.75,6.14-6.14V18.6c0-3.39-2.75-6.14-6.14-6.14ZM82.67,53.23c0,1.53-1.24,2.77-2.77,2.77H30.17c-1.53,0-2.77-1.24-2.77-2.77V18.08c0-1.53,1.24-2.77,2.77-2.77h49.73c1.53,0,2.77,1.24,2.77,2.77v35.15Z"/>
  <polygon class="st3" points="26.31 46.97 26.31 38.6 31.88 34.89 26.31 34.89 26.31 25.54 1.41 25.54 1.41 46.97 26.31 46.97"/>
  <rect class="st4" x="4.11" y="28.39" width="19.29" height="16.23"/>
  <g>
    <path class="st0" d="M11.91,36.91h-2.71l-.93,2.35h-.51l2.68-6.69h.3l2.62,6.69h-.52l-.92-2.35ZM9.38,36.49h2.38l-.91-2.4c-.08-.19-.17-.45-.27-.78-.08.29-.17.56-.27.79l-.93,2.39Z"/>
    <path class="st0" d="M18.52,39.26l-.11-.78h-.04c-.25.32-.5.54-.77.68s-.57.2-.93.2c-.49,0-.86-.12-1.13-.37s-.41-.59-.41-1.03c0-.48.2-.86.6-1.13s.98-.41,1.75-.42l.94-.03v-.33c0-.47-.1-.83-.29-1.07s-.5-.36-.92-.36c-.46,0-.93.13-1.43.38l-.17-.39c.54-.26,1.08-.38,1.61-.38s.95.14,1.22.42.4.72.4,1.32v3.29h-.33ZM16.69,38.94c.53,0,.95-.15,1.25-.45s.46-.72.46-1.26v-.49l-.87.04c-.7.03-1.19.14-1.49.33s-.44.47-.44.86c0,.31.09.55.28.72s.46.26.8.26Z"/>
  </g>
  <rect class="st1" x="17.5" y="6.29" width="30.56" height="14.97"/>
  <rect class="st3" x="15.61" y="4.4" width="3.78" height="3.78"/>
  <rect class="st3" x="15.61" y="19.37" width="3.78" height="3.78"/>
  <rect class="st3" x="46.16" y="19.37" width="3.78" height="3.78"/>
  <rect class="st3" x="46.16" y="4.4" width="3.78" height="3.78"/>
  <path class="st4" d="M79.85,50.45c2.46,0,4.59,1.42,5.62,3.48.22-.03.44-.07.67-.07,2,0,3.68,1.29,4.31,3.08.09,0,.18-.03.27-.03,1.69,0,3.05,1.37,3.05,3.05s-1.37,3.05-3.05,3.05h-10.86c-3.47,0-6.28-2.81-6.28-6.28s2.81-6.28,6.28-6.28Z"/>
  <polygon class="st3" points="86.88 8.65 86.88 17.02 81.31 20.74 86.88 20.74 86.88 30.09 111.78 30.09 111.78 8.65 86.88 8.65"/>
  <polygon points="90.06 25.46 98.33 19.47 104.2 24.83 108.6 21.43 108.6 27.67 90.06 27.67 90.06 25.46"/>
  <circle cx="104.4" cy="15.4" r="1.84"/>
  <rect class="st1" x="90.06" y="11.4" width="18.54" height="15.92"/>
</svg>