<?xml version="1.0" encoding="UTF-8"?>
<svg id="Calque_1" xmlns="http://www.w3.org/2000/svg" version="1.1" viewBox="0 0 1077.24 874.63">
  <!-- Generator: Adobe Illustrator 29.8.1, SVG Export Plug-In . SVG Version: 2.1.1 Build 2)  -->
  <defs>
    <style>
      .st0, .st1 {
        fill: #d7d8ff;
      }

      .st0, .st1, .st2, .st3, .st4, .st5 {
        stroke: #0a0804;
        stroke-linecap: round;
        stroke-width: 4px;
      }

      .st0, .st1, .st2, .st3, .st5 {
        stroke-linejoin: round;
      }

      .st0, .st3 {
        fill-rule: evenodd;
      }

      .st6, .st7 {
        fill: #0a0804;
      }

      .st2, .st3, .st4 {
        fill: none;
      }

      .st4, .st7 {
        stroke-miterlimit: 10;
      }

      .st7 {
        stroke: #080807;
      }
    </style>
  </defs>
  <g>
    <path class="st2" d="M651.94,84.56s-4.58-9.17-10.38-13.82c-7.33-5.87-22.88-7.12-29.49-2.94-3.51,2.22-12.76,12.28-12.76,12.28,0,0,9.26-4.97,14.48-5.52,5.23-.55,26.74-.29,38.15,10Z"/>
    <path class="st2" d="M751.78,130.05s8.4-1.24,15.82-.77c7.43.47,18.73,12.75,20.12,17.82,1.1,4.01.08,18.87.08,18.87,0,0-2.42-11.11-5.91-15.04-3.49-3.93-14.74-20.81-30.12-20.88Z"/>
    <path class="st2" d="M577.88,103.33s-55.14,66.51-41.28,85.83c11.8,16.46,31,20.32,65.64-11.82,0,0,8.53,12.9,25.01,13.99s25.89-11.75,25.89-11.75l11.36,6.17s-5.52,23.15,11.24,32.47c12.9,7.17,21.33,5.31,32.27,1.21,0,0-13.94,56.38,14.8,67.46,21.6,8.32,31.3-.65,46.99-38.33,18.32-40.63,19.96-73.47,19.96-73.47,0,0,2.37-16.79-9.06-27.64-8.57-8.14-18.33-14.8-29.98-17.07-13.9-2.71-27.21-7.84-39.98-13.95l-24.45-11.71c-9.99-4.78-19.66-10.25-28.55-16.85-4.81-3.57-12.53-7.9-24.2-10.94-23.34-6.07-44.31,4.55-55.65,26.4Z"/>
    <path class="st2" d="M648.45,148.29c-.25,1.51-.81,2.9-1.61,4.15-3.05,4.74-9.68,7.4-16.76,6.2-8.15-1.38-14.08-7.39-14.16-13.91,0-.63.04-1.27.15-1.91,1.21-7.23,9.43-11.86,18.38-10.35,8.94,1.52,15.21,8.6,13.99,15.82Z"/>
    <path class="st2" d="M646.84,152.44c0,.64-.04,1.28-.15,1.92-1.21,7.22-9.44,11.85-18.38,10.34-8.94-1.51-15.21-8.6-14-15.82.25-1.51.81-2.9,1.62-4.15.08,6.52,6.01,12.53,14.16,13.91,7.08,1.2,13.7-1.46,16.76-6.2Z"/>
    <path class="st2" d="M710.3,175.82c-.25,1.52-.82,2.93-1.64,4.19-3.06,4.71-9.67,7.34-16.73,6.15-8.37-1.41-14.41-7.72-14.14-14.45.01-.45.05-.91.13-1.37,1.2-7.22,9.43-11.85,18.37-10.34,8.94,1.51,15.22,8.59,14.01,15.82Z"/>
    <path class="st2" d="M708.65,180.01c-.01.45-.05.9-.13,1.36-1.2,7.23-9.43,11.86-18.37,10.35-8.94-1.52-15.22-8.6-14-15.82.25-1.52.82-2.93,1.64-4.19-.27,6.73,5.77,13.04,14.14,14.45,7.06,1.19,13.66-1.44,16.73-6.15Z"/>
    <ellipse class="st2" cx="618.67" cy="99.57" rx="15.3" ry="19.81" transform="translate(415.45 692.33) rotate(-80.22)"/>
    <path class="st2" d="M750.98,157.7c-1.84-3.83-.21-8.42,3.63-10.23,3.85-1.82,8.46-.18,10.3,3.66,1.84,3.83.21,8.42-3.63,10.23-3.85,1.82-8.46.18-10.3-3.66Z"/>
    <path class="st2" d="M728.97,167.65c-2.5-3.45-1.73-8.25,1.72-10.72,3.46-2.47,8.29-1.69,10.79,1.76,2.5,3.45,1.73,8.25-1.72,10.72-3.46,2.47-8.29,1.69-10.79-1.76Z"/>
    <path class="st2" d="M738.57,189.65c-2.5-3.45-1.73-8.25,1.72-10.72,3.46-2.47,8.29-1.69,10.79,1.76,2.5,3.45,1.73,8.25-1.72,10.72-3.46,2.47-8.29,1.69-10.79-1.76Z"/>
    <path class="st2" d="M761.75,180.89c-2.5-3.45-1.73-8.25,1.72-10.72,3.46-2.47,8.29-1.69,10.79,1.76,2.5,3.45,1.73,8.25-1.72,10.72-3.46,2.47-8.29,1.69-10.79-1.76Z"/>
    <path class="st2" d="M601.93,179.17l6.02-28.14s1.08,15.37,18.09,19.21c18.6,4.2,27.08-5.75,27.08-5.75h0l14.72,6.6s-4.31,16.51,16.39,23.65c16.11,6.06,26.72-.89,30.22-5.68l-6.62,30.85s-11.22,5.69-28.62.34c-20.99-6.46-15.67-32.65-15.67-32.65l-11.28-5.89s-19.21,21.96-43.83,3.84l-6.49-6.38Z"/>
    <path class="st2" d="M662.26,91.42s-13.48,10.59-20.04,31.98l76.82,36.95s11.73-30.66,19.18-32.35l-44.81-19.5-31.15-17.07Z"/>
    <path class="st2" d="M534.43,179.1s-.44,23.7,28.34,9.43c27.72-13.74,30.39-33.6,39.48-36.86,5.45-1.95,5.45.92,5.45.92l-5.91,27.41-23.94,16.42s-13.46,6.42-20.44,5.16c-6.98-1.26-16.81-4.49-22.81-15.54l-.17-6.94Z"/>
    <path class="st2" d="M715.34,282.23s9.36,10.89,28.04-9.05c10.3-10.99,48.37-89.61,41.59-120.42,0,0,5.95,22.99,2.76,38.06-3.19,15.07-21.53,87.56-44.28,97.34-17.19,7.38-28.11-5.93-28.11-5.93Z"/>
  </g>
  <g>
    <g>
      <path class="st2" d="M610.73,388.27s-13.48-10.77-19.54-15.48c-6.06-4.71-16.84-5.05-22.91-3.03-5.29,1.76-18.03,15.07-22.53,17.97"/>
      <path class="st2" d="M649.58,377.36c1.02-12.58-15.82-17-15.82-17l-.34-21.92c-2.21-3.06-5.1-2.21-5.1-2.21l-.34-11.22h0c1.09-22.74-14.25-45.49-48.62-45.49s-50.09,22.76-49,45.49h0s-.34,11.22-.34,11.22c0,0-2.89-.85-5.1,2.21l-.34,21.92s-16.84,4.42-15.82,17c1.02,12.58,14.63,21.92,14.63,21.92l-.34,14.45s13.44,23.96,49.85,7.99c0,0-3.74-31.56,6.27-31.95,10.01.39,6.27,31.95,6.27,31.95,36.41,15.98,49.85-7.99,49.85-7.99l-.34-14.45s13.61-9.35,14.63-21.92Z"/>
      <path class="st6" d="M617.9,357.02c-4.02,4.52-16.08,1-22.11-5.52-.83-.9-1.78-1.75-2.8-2.53-8.61-6.65-20.3-6.71-28.89-.02-1.02.79-1.97,1.64-2.81,2.55-6.03,6.52-18.09,10.04-22.11,5.52-3.1-3.49-4.11-14.45-4.41-19.27-.08-1.26.93-2.31,2.19-2.31h83.15c1.27,0,2.27,1.05,2.19,2.31-.3,4.82-1.31,15.78-4.41,19.27Z"/>
      <path class="st6" d="M524.99,391.26c-.6-2.59-11.38-8.05-8.99-12.08,2.4-4.03,6.89-3.16,6.89-3.16,4.79,5.47,5.99,12.37,5.99,12.37l-3.89,2.88Z"/>
      <path class="st6" d="M627.16,389.19s1.2-6.9,5.99-12.37c0,0,4.49-.86,6.89,3.16,2.4,4.03-8.39,9.49-8.99,12.08l-3.89-2.88Z"/>
      <path class="st6" d="M560.29,419.93c-2.54,0-4.59-1.87-4.59-4.18s2.06-4.18,4.59-4.18,4.59,1.87,4.59,4.18-2.06,4.18-4.59,4.18Z"/>
      <path class="st6" d="M596.26,419.82c-2.54,0-4.59-1.85-4.59-4.13s2.06-4.13,4.59-4.13,4.59,1.85,4.59,4.13-2.06,4.13-4.59,4.13Z"/>
    </g>
    <path class="st4" d="M595.38,293.38s14.35,3,21.49,22.09"/>
  </g>
  <polyline class="st2" points="522.89 441.6 522.13 460.55 513.03 461.56 501.43 524.21 461.47 534.82 462.98 550.99 349.18 549.85 482.33 615.79 424.29 640.8 491.44 644.21 427.7 764.72 513.06 720.38 521.03 751.07 568.82 697.64 588.17 722.65 596.12 692.37"/>
  <polyline class="st2" points="523.68 416.84 493.33 428.21 506.23 381.22 469.05 378.95 489.54 360 382.56 341.81 494.09 306.19 452.36 277.39 500.92 281.18 478.92 153.09 576.03 253.14 597.28 213.73 604.1 264.51 648.11 234.95 633.69 289.52 665.56 290.27 628.38 315.28"/>
  <line class="st2" x1="478.16" y1="226.61" x2="486.5" y2="266.02"/>
  <path class="st2" d="M571.99,233.94l11.63-23.24s-16.69,8.08-33.64,1.26l22,21.98Z"/>
  <path class="st2" d="M610.68,243.28l-7.08-48.51s28.83,21.73,51.09-1.01c0,0-9.61,38.4,37.43,38.91,0,0-10.62,49.01,22.76,65.18"/>
  <path class="st2" d="M644.06,214.48c-14.67,7.07-26.3-.51-26.3-.51l3.03,23.75,23.27-23.24Z"/>
  <g>
    <path class="st2" d="M759.58,378.5c-.58.67-1.2,1.32-1.83,1.97-.42-.96-.84-1.92-1.24-2.87-1.11-2.65-2.52-4.74-4.35-6.15-1.83-1.42-4.08-2.18-6.86-2.19-10.87-.05-20.41,4.8-20.41,4.8,0,0-9.75,4.4-16.5,12.92-3.46,4.37-3.25,8.92-.49,13.97.49.89.92,1.77,1.33,2.63-9.69.91-18.81-1.57-26.53-10.08-.11-.12-.22-.24-.34-.37-3.36-3.8-6.44-8.68-8.83-15.2-1.87-5.1-2.76-10.2-2.81-15.17-.23-19.74,12.54-37.38,27.87-43.84,14.62-7.92,36.37-6.87,51.66,5.64,3.86,3.14,7.3,7.02,10.12,11.67,3.6,5.94,5.49,11.39,6.36,16.39.03.17.06.34.08.5,1.69,10.49-1.41,18.69-7.23,25.4Z"/>
    <ellipse class="st2" cx="710.07" cy="343.27" rx="17.41" ry="17.39"/>
    <path class="st2" d="M687.24,372.58c3.53,7.33,1.45,15.91-4.54,20.89-.12-.12-.22-.24-.34-.37-3.37-3.8-6.44-8.68-8.84-15.2-1.87-5.09-2.76-10.2-2.81-15.17,6.77-.32,13.4,3.36,16.52,9.85Z"/>
    <path class="st2" d="M759.58,378.5c-.58.67-1.2,1.32-1.83,1.97-.42-.96-.84-1.92-1.24-2.87-1.11-2.65-2.52-4.74-4.35-6.15-1.83-1.42-4.08-2.18-6.86-2.19-10.87-.05-20.41,4.8-20.41,4.8,0,0-9.75,4.4-16.5,12.92-3.46,4.37-3.25,8.92-.49,13.97.49.89.92,1.77,1.33,2.63-9.69.91-18.81-1.57-26.53-10.08-.11-.12-.22-.24-.34-.37-3.36-3.8-6.44-8.68-8.83-15.2-1.87-5.1-2.76-10.2-2.81-15.17-.23-19.74,12.54-37.38,27.87-43.84,14.62-7.92,36.37-6.87,51.66,5.64,3.86,3.14,7.3,7.02,10.12,11.67,3.6,5.94,5.49,11.39,6.36,16.39.03.17.06.34.08.5,1.69,10.49-1.41,18.69-7.23,25.4Z"/>
    <path class="st2" d="M747.52,402.68l-15.61,5.95c-6,2.49-10.15,3.53-13.15,3.53-5.79,0-7.28-3.87-9.54-8.61-.41-.85-.84-1.73-1.33-2.63-2.76-5.05-2.98-9.6.49-13.97,6.75-8.52,16.5-12.92,16.5-12.92,0,0,9.54-4.85,20.41-4.8,2.79.01,5.04.77,6.86,2.19,1.83,1.42,3.25,3.5,4.35,6.15.39.95.82,1.91,1.24,2.87,3.49,7.99,6.59,16.27-10.22,22.22Z"/>
    <path class="st2" d="M766.73,352.6c.03.17.06.34.08.5-7.65,1.59-15.68-2.15-19.22-9.5-3.13-6.5-1.84-13.98,2.66-19.07,3.86,3.15,7.3,7.03,10.12,11.68,3.6,5.94,5.49,11.39,6.36,16.39Z"/>
  </g>
  <path class="st2" d="M762.67,313.01s-48.3-41.43-94.33,15.16"/>
  <path class="st2" d="M660.75,347.37s-12.14,53.05,36.42,68.21"/>
  <path class="st2" d="M646.21,350.15s-4.17-21.22,45.14-56.08l-50.83,23.49,5.69,32.59Z"/>
  <polyline class="st2" points="510.02 279.28 492.19 180 541.13 233.05"/>
  <line class="st2" x1="632.56" y1="259.2" x2="624.59" y2="283.45"/>
  <path class="st2" d="M522.67,426.69s11.89,17.94,46.03,8.59"/>
  <polygon class="st2" points="504.31 70.42 520.93 90.22 544.7 80.57 531.2 102.46 547.81 122.26 522.85 115.99 509.34 137.88 507.42 112.11 482.45 105.84 506.23 96.19 504.31 70.42"/>
  <path class="st6" d="M511.8,100.4h1.13c.73,0,1.33.6,1.33,1.33v4.61c0,.73-.59,1.33-1.33,1.33h-1.13c-.73,0-1.33-.6-1.33-1.33v-4.61c0-.73.59-1.32,1.32-1.32Z" transform="translate(-1.5 200.37) rotate(-22.1)"/>
  <path class="st6" d="M520.35,96.44h1.13c.73,0,1.33.59,1.33,1.33v4.61c0,.73-.59,1.32-1.32,1.32h-1.13c-.73,0-1.33-.59-1.33-1.33v-4.61c0-.73.59-1.33,1.33-1.33Z" transform="translate(.62 203.3) rotate(-22.1)"/>
  <path class="st2" d="M487.26,144.76l39.45,42.44s-8.6-15.66,21.75-55.58l-21.24-3.54-12.9,20.72-27.06-4.04Z"/>
  <path class="st1" d="M568.11,499.14l26.89,26.86c-7.04,5.67-15.99,9.08-25.74,9.08-22.62,0-40.97-18.32-40.97-40.92s18.34-40.92,40.97-40.92c12.29,0,23.31,5.41,30.83,13.97l-31.98,31.94Z"/>
  <ellipse class="st2" cx="613.21" cy="499.45" rx="14.04" ry="14.02"/>
  <ellipse class="st2" cx="663.66" cy="499.45" rx="14.04" ry="14.02"/>
  <ellipse class="st2" cx="714.12" cy="499.45" rx="14.04" ry="14.02"/>
  <polyline class="st2" points="613.21 485.43 613.21 465.35 676.18 465.35 676.18 405.47"/>
  <polyline class="st2" points="663.66 485.43 641.28 485.43 641.28 465.35"/>
  <polyline class="st2" points="714.12 485.43 714.12 442.61 677.7 442.61"/>
  <path class="st2" d="M610.93,454.74h37.56c7.75,0,14.04-6.28,14.04-14.02v-54.95"/>
  <ellipse class="st2" cx="856.18" cy="190.42" rx="14.04" ry="14.02"/>
  <ellipse class="st2" cx="856.18" cy="140.02" rx="14.04" ry="14.02"/>
  <ellipse class="st2" cx="1008.68" cy="201.03" rx="14.04" ry="14.02"/>
  <ellipse class="st1" cx="1059.52" cy="241.96" rx="14.04" ry="14.02"/>
  <ellipse class="st2" cx="1027.65" cy="293.87" rx="14.04" ry="14.02"/>
  <ellipse class="st2" cx="856.18" cy="89.62" rx="14.04" ry="14.02"/>
  <polyline class="st2" points="842.15 190.42 822.04 190.42 822.04 127.52 799.31 127.6 799.28 89.62 842.15 89.62"/>
  <polyline class="st2" points="842.15 140.02 842.15 162.38 822.04 162.38"/>
  <polyline class="st2" points="688.03 420.63 688.03 431.24 730.56 431.24 730.56 467.12"/>
  <path class="st2" d="M730.81,419.49c30.35-4.04,45.14-24.25,45.14-24.25l-6.45-12.13c10.62-10.61,9.1-34.74,9.1-34.74"/>
  <g>
    <path class="st1" d="M809.86,275.84s16.87,9.15,28.06-12.21c11.19-21.36,5.81-48.34-23.67-55.81-29.48-7.47-29.53,54.2-15.45,61.31,0,0-26.03,24.63-17.54,34.82,0,0,.89,2.58-.1,6.57-1,3.98-11.65,27.24-3.09,27.41,8.56.17,13.77-6.19,13.77-6.19,0,0-3.27,10.14,1.15,10.7s32.48-36.61,16.86-66.6Z"/>
    <path class="st6" d="M816.94,241.2s6.63-8.71,1.36-13.72c-5.28-5.01-9.23,3.28-10.03,7.74-.8,4.46,8.67,5.98,8.67,5.98Z"/>
    <path class="st6" d="M833.38,244.06s-5.87-2.4-5-7.86,3.62-6.87,3.62-6.87c0,0,3.44,2.38,3.41,6.84-.03,4.45-2.03,7.89-2.03,7.89Z"/>
    <path class="st6" d="M825.36,260.17s-4.29,1.81-5.99,4.32.47,4.87.47,4.87l5.2.91s7.59-8.91.32-10.1Z"/>
    <path class="st2" d="M793.4,290.33s-4.05,10.36-5.46,12.52c-1.41,2.16-6.66,1.1-6.66,1.1"/>
    <path class="st2" d="M791.85,331.74s4.58-7.95,5.97-13.93"/>
  </g>
  <path class="st2" d="M774.43,258.44l7.21,13.64s-11.19,14.78-13.66,24.25c-2.12,8.14,2.09,10.99,2.09,10.99l-21.43-13.26s28.07-17.43,25.8-35.62Z"/>
  <polygon class="st2" points="805.05 534.54 797.32 542.06 774.34 521.83 765.76 531.56 747.48 489.55 790.7 503.32 782.09 513.08 805.05 534.54"/>
  <g>
    <polygon class="st2" points="643.93 569.51 619.31 528.13 667.5 527.75 643.93 569.51"/>
    <polygon class="st2" points="668.19 609.85 643.58 568.47 691.76 568.09 668.19 609.85"/>
    <polygon class="st2" points="691.14 569.18 666.53 527.8 714.71 527.42 691.14 569.18"/>
  </g>
  <path class="st2" d="M680.73,613.89l51.59-93.6c17.07-21.6,0-40.17,0-40.17h59.43s3.03-16.04,17.7-16.04c0,0-20.56-5.66-10.12-48.51,9.61-39.41,32.88-32.84,30.35-67.71"/>
  <path class="st2" d="M813.32,199.46s-1.61-.52-6.39-.11c-3.81.33-8.16,2.72-8.16,2.72v-65.39h14.48l.06,62.78Z"/>
  <line class="st2" x1="807.92" y1="96.91" x2="807.92" y2="120.02"/>
  <g>
    <path class="st2" d="M891.08,387.84c-2,5.4-2.55,11.23-1.57,16.91,2.42,14.03,4.98,28.04-2.12,42.06-7.89,15.57-20.08,22.4-37.35,20.31-1.88-.23-4.37-2.17-5.7.47-1.8,3.57-3.78,7.29-3.24,11.48.2,1.59,2.24,1.38,3.51,1.79,4.17,1.37,8.49,2.28,12.17,4.91,3.96,2.83,6.07,6.57,4.81,11.33-1.29,4.87-5.51,6.18-9.95,6.17-13.68,0-26.17-4.79-38.55-9.94-2.11-.88-4.25-1.71-6.27-2.76-3.1-1.6-5.7-3.71-5.33-7.69.37-3.96,2.84-6.33,6.44-7.5,5.92-1.92,11.98-1.31,17.66.49,4.67,1.48,6.5-.34,7.75-4.18.49-1.5.81-3.08,1.45-4.51,1.22-2.74.83-4.63-2.22-5.75-1.29-.47-2.43-1.38-3.6-2.16-16.67-11-21.08-26.77-12.56-44.82,4.09-8.68,10.29-15.88,16.15-23.35,4.98-6.35,10.08-12.65,12.24-20.71,1.47-5.47,1.29-10.71-1.11-15.91-2.19-4.76-.86-6.86,4.37-7.24.35-.03.71-.01,1.05-.07,2.99-.46,7.8,2.19,8.66-.52,1.65-5.19,2.13-11.17.93-16.63-.73-3.36-4.64-3.83-7.53-2.42-4.88,2.37-9.08,3.46-13.45-1.18-1.81-1.92-4.98-1.04-7.62-.71-1.54.19-3.38,2.41-4.6.06-.94-1.81.92-3.21,1.99-4.53,7.71-9.57,16.98-17.26,28.02-22.73,1.56-.77,2.99-1.02,3.31-3.38.48-3.62,2.77-2.81,4.11-.61,1.06,1.73,2.24,2.35,4.06,2.77,12.63,2.89,22.63,10.16,31.46,19.27,1.18,1.22,3.08,2.57,2.29,4.41-.93,2.17-3.05.77-4.68.62-4.2-.38-8.29-.05-10.87,3.76-1.37,2.02-2.44,1.31-3.89.55-3.25-1.69-6.61-2.14-10.21-1.16-7.09,1.92-5.53,4.96-5.98,12.32-.7,11.35-.96,11.45,10.05,14.4,5.94,1.59,8.51,2.7,14.35,4.62,1.04.34,2.74.68,2.05,2.37-.68,1.67-2.08,4.16-3.13,3.62-6.83-2.46-9.29-3.22-16.88-5.49-1.84-.29-5.29-2.5-5.88,1.14-.53,3.27.32,5.55,5.5,7.96,8.54,2.65,8.16,3.22,15.74,5.49,2.26.16,4.54.44,6.78.26,1.63-.13,4.05.24,4.62-1.61.54-1.71-1.45-2.96-2.51-4.33-.59-.77-1.5-4.37,2.5-3.75,4.16,1.15,5.91,4.37,7.38,7.68,1.3,2.92-1.02,3.91-3.06,5.13-5.3,3.13-9.18,7.52-11.55,13.28h0ZM848.98,354.32c3.88,3.09,5.92,4.35,10.62,6.63-.13-3.23,1.21-5.84-1.9-7.2-3.16-1.38-4.61-1.65-8.73.57Z"/>
    <path class="st2" d="M864.02,459.08s0,.01,0,0c-4.13-2.52-8.86-3.77-12.96-6.5-3.14-2.08-3.02-3.93-1.18-6.3,2.36-3.05,4.9-5.97,7.51-8.82,2.11-2.31,9.77.56,15.32,5.61,3.07,2.79.42,4.57-1.13,6.54-2.5,3.17-5.03,6.31-7.55,9.47Z"/>
    <path class="st2" d="M857.66,420.54c-2.86,2.72-6.08,5.94-9.5,8.94-1.1.97-2.3-.01-3.22-.91-1.77-1.71-3.55-3.4-5.3-5.13-2.44-2.41-6.94-4.15-6.36-7.68.38-2.3,4.64-3.81,6.83-6.01,2.45-2.46,4.26-2.8,6.93-.1,2.69,2.72,6.05,4.77,9.11,7.13,1.02.79,2.75,1.22,1.51,3.75Z"/>
    <path class="st2" d="M837.91,431.72c1.56.5,4.69,9.28,3.47,11.38-2.28,3.95-6.48,2.26-9.89,2.3-1.96.03-4.01-8.08-3.08-11.29.35-1.2,7.54-3.02,9.49-2.39Z"/>
    <path class="st2" d="M828.37,423.46c-.61-2.6-5.44-.66-4.76-4.2.32-1.64,2.34-1.07,3.15-.82,2.3.69,1.51,3,1.6,5.03Z"/>
  </g>
  <g>
    <path class="st2" d="M119.5,686.01s0,0,0,0c-4.28.14-8.38,1.5-12.74,1.47-3.34-.02-4.14-1.45-3.93-4.09.27-3.4.73-6.79,1.28-10.16.44-2.73,7.5-4.31,14.05-3.27,3.62.58,2.53,3.18,2.33,5.38-.31,3.55-.66,7.1-.99,10.65Z"/>
    <path class="st2" d="M96.1,660.59c-.8,3.39-1.62,7.33-2.69,11.21-.34,1.25-1.71,1.1-2.82.89-2.14-.41-4.28-.8-6.41-1.23-2.97-.6-7.15.29-8.42-2.6-.83-1.89,1.59-5.06,2.14-7.75.62-3.01,1.79-4.13,5.07-3.43,3.31.71,6.79.6,10.19.87,1.14.09,2.62-.43,2.94,2.04Z"/>
    <path class="st2" d="M86.92,678.42c1.39-.39,7.97,4.59,8.09,6.73.23,4.02-3.7,4.8-6.19,6.49-1.43.97-6.88-4.03-7.75-6.85-.33-1.06,4.11-5.88,5.86-6.37Z"/>
    <path class="st2" d="M75.86,676.93c-1.71-1.62-4.34,2.15-5.55-.81-.56-1.37,1.21-1.92,1.93-2.13,2.04-.61,2.57,1.49,3.62,2.94Z"/>
  </g>
  <path class="st2" d="M787.46,349.64s.76,24.25-5.82,30.57l11.38,19.45s3.54-13.39,14.92-22.74c11.38-9.35,11.38-30.32,11.38-30.32,0,0-27.06,9.85-31.87,3.03Z"/>
  <path class="st2" d="M749.39,434.6h0c-1.94,4.42-2.11,9.55-.48,14.28l7.75,22.53c.35,1.02,1.37,1.66,2.33,1.4,1.06-.28,1.61-1.46,1.23-2.56l-.16-.46c-.6-1.73.13-3.65,1.7-4.28,1.68-.68,3.61.31,4.24,2.14l.19.55c.36,1.06,1.45,1.64,2.43,1.3l1.42-.49c.98-.34,1.48-1.46,1.11-2.52l-.48-1.4c-.43-1.26.11-2.66,1.27-3.08,1.18-.43,2.51.27,2.95,1.55l.51,1.47c.36,1.06,1.45,1.64,2.43,1.3l1.42-.49c.98-.34,1.48-1.46,1.11-2.52l-.16-.46c-.6-1.73.13-3.65,1.7-4.28,1.68-.68,3.61.31,4.24,2.14l.17.48c.35,1.02,1.37,1.66,2.33,1.4,1.06-.28,1.61-1.46,1.23-2.56l-7.77-22.59c-1.63-4.73-4.92-8.67-9.17-10.97h0c-8.91-4.82-19.48-1.19-23.54,8.08Z"/>
  <polyline class="st2" points="668.59 95.49 712.6 105.35 695.15 77.31 734.6 93.22 727.77 35.62 770.26 85.64 780.88 53.81 799.28 89.62"/>
  <polygon class="st1" points="738.9 30.32 765.46 64.17 773.8 31.58 738.9 30.32"/>
  <path class="st2" d="M850.3,216s21.24,62.15-22.76,71.62"/>
  <g>
    <path class="st2" d="M261.17,468.63l16.09-4.24,16.74,22.93,1.31,15.52c-16.95,18.32-61.31,16.75-61.31,16.75l-5.18-13.88,3.39-29.44,16.4-3.74"/>
    <path class="st2" d="M261.98,475.74s.87,11.89-10.66,6.33l-6.59-32.89s5.95-.91,9.74-4.85l7.51,31.41Z"/>
    <path class="st2" d="M291.92,489.32s-23.92,18.3-61.95,16.25"/>
    <path class="st2" d="M248.94,480.03s-4.84,3.2-6.91,12.45c0,0,17.73,4.81,31.94-7.37,0,0-3.6-5.66-10.74-9.43"/>
  </g>
  <path class="st2" d="M462.98,364.55l-16.31,9.47,13.28,7.2-78.15,2.27-3.03-15.16h-17.45s.04-.09.12-.25c2-4.21,3.34-8.7,4-13.31l.43-2.99,97.11,12.76Z"/>
  <polygon class="st2" points="722.02 568.71 671.06 659.32 696.66 696.92 741.1 701.62 780.6 659.92 772.83 641.81 791.39 595.9 803.7 597.66 809.16 587.66 795.15 573.98 747.77 567.4 722.02 568.71"/>
  <polyline class="st2" points="747.77 567.4 759.89 581.84 809.16 587.66"/>
  <polyline class="st2" points="754.03 591.92 743.88 591.17 727.62 638.08 736.85 656.73 780.6 659.92"/>
  <line class="st2" x1="736.85" y1="656.73" x2="696.66" y2="696.92"/>
  <polygon class="st2" points="742.32 667.33 720.91 689.1 738.21 689.92 757.8 669.31 742.32 667.33"/>
  <polygon class="st2" points="748.84 599.56 738.38 630.47 769.13 632.22 781.52 602.88 748.84 599.56"/>
  <line class="st2" x1="727.62" y1="638.08" x2="757.27" y2="639.43"/>
  <g>
    <polygon class="st2" points="532.15 547.68 526.35 550.73 528.22 551.75 523.75 555.16 529.58 556.35 524.36 558.59 524.82 558.48 529.44 584.7 546.56 580.54 548.83 649.23 601.52 642.56 577.63 550.27 546.04 559.19 541.68 538.46 528.02 543.83 528.02 543.83 532.15 547.68"/>
    <polygon class="st5" points="513.47 531.74 485.19 538.08 486.17 545.67 503.47 544.13 508.79 562.12 524.36 558.59 529.58 556.35 523.75 555.16 528.22 551.75 526.35 550.73 532.15 547.68 528.02 543.83 528.02 543.83 516.92 548.2 513.47 531.74"/>
  </g>
  <path class="st2" d="M657.72,619.2l-50.07-87.41c-6.58,10.86-20.23,12-20.23,12l44.76,164.46"/>
  <g>
    <polygon class="st2" points="895.7 293.99 872.18 278.53 872.18 227.75 895.7 212.29 919.22 227.75 919.22 278.53 895.7 293.99"/>
    <polygon class="st2" points="895.7 273.73 884.41 266.3 884.41 241.92 895.7 234.5 906.99 241.92 906.99 266.3 895.7 273.73"/>
    <path class="st2" d="M895.7,234.5c-.57-1.06,0-22.21,0-22.21"/>
    <line class="st2" x1="906.99" y1="241.92" x2="919.22" y2="227.75"/>
    <line class="st2" x1="906.99" y1="266.3" x2="919.22" y2="278.53"/>
    <line class="st2" x1="895.7" y1="273.73" x2="895.7" y2="293.99"/>
    <line class="st2" x1="884.41" y1="266.3" x2="872.18" y2="278.53"/>
    <line class="st2" x1="884.41" y1="241.92" x2="872.18" y2="227.75"/>
  </g>
  <g>
    <polygon class="st2" points="688.23 829.1 672.78 865.09 603.11 877.55 576.12 849.14 591.57 813.14 661.24 800.68 688.23 829.1"/>
    <polygon class="st2" points="660.43 834.07 653.01 851.35 619.56 857.33 606.6 843.69 614.02 826.4 647.47 820.42 660.43 834.07"/>
    <path class="st2" d="M606.6,843.69c-1.31,1.04-30.48,5.45-30.48,5.45"/>
    <line class="st2" x1="614.02" y1="826.4" x2="591.57" y2="813.14"/>
    <line class="st2" x1="647.47" y1="820.42" x2="661.24" y2="800.68"/>
    <line class="st2" x1="660.43" y1="834.07" x2="688.23" y2="829.1"/>
    <line class="st2" x1="653.01" y1="851.35" x2="672.78" y2="865.09"/>
    <line class="st2" x1="619.56" y1="857.33" x2="603.11" y2="877.55"/>
  </g>
  <path class="st2" d="M866.62,216s16.41-5.14,18.21-22.74c1.9-18.57-9.1-28.04-19.35-27.66,0,0,15.93-4.93,18.59-20.84,2.31-13.87-4.93-24.63-10.62-28.8,0,0,19.47-17.68,1.77-41.94"/>
  <polyline class="st2" points="746.99 514.36 724.23 558.57 749.78 557.05 794.54 565.39 794.79 552 775.07 534.57 763.69 547.2 748.01 514.36"/>
  <g>
    <ellipse class="st2" cx="382.06" cy="273.37" rx="28.15" ry="28.12"/>
    <ellipse class="st2" cx="382.06" cy="273.37" rx="28.15" ry="28.12"/>
  </g>
  <g>
    <path class="st3" d="M429.68,151.33h0c5.74-6.02,15.28-6.25,21.3-.52l-25.55-24.32c-6.03-5.73-15.56-5.5-21.3.52h0c-5.74,6.02-5.51,15.55.52,21.28l25.55,24.32c-6.03-5.73-6.26-15.26-.52-21.28Z"/>
    <path class="st0" d="M464.39,184.37h0c5.74-6.02,5.51-15.55-.52-21.28l-12.9-12.28c-6.03-5.73-15.56-5.5-21.3.52h0c-5.74,6.02-5.51,15.55.52,21.28l12.9,12.28c6.03,5.73,15.56,5.5,21.3-.52Z"/>
  </g>
  <g>
    <polygon class="st2" points="980.45 515.18 945.29 552.7 936.16 544.26 971.37 506.69 980.45 515.18"/>
    <polygon class="st2" points="751.89 712.21 817.29 715.69 949.26 576.72 913.3 543.22 751.89 712.21"/>
    <polygon class="st2" points="963.79 569.77 953.32 580.4 935.11 563.55 925.99 555.11 908.47 538.9 918.93 528.36 936.16 544.26 945.29 552.7 963.79 569.77"/>
    <polygon class="st2" points="759.87 703.74 814.76 706.79 943.06 570.69 949.26 576.72 817.26 715.72 751.89 712.21 759.87 703.74"/>
    <polygon class="st2" points="972.68 499.42 987.62 513.39 983.38 517.92 968.44 503.95 972.68 499.42"/>
    <polygon class="st2" points="979.48 497.28 989.31 506.47 985.07 511 975.23 501.81 979.48 497.28"/>
  </g>
  <path class="st2" d="M395.25,229.31l-10.45-2.27,9.08-4.31c12.41-5.89,21.27-17.33,23.88-30.8l1.63-8.45,5.3,9.91c5.97,11.17,16.55,19.16,28.94,21.86l11.65,2.53-9.66,4.59c-12.09,5.74-20.83,16.75-23.68,29.81l-2.27,10.43-4.59-9.64c-5.75-12.07-16.77-20.81-29.84-23.65Z"/>
  <path class="st1" d="M639.89,727.2l-9.97-2.17,8.67-4.12c11.84-5.62,20.3-16.53,22.79-29.39l1.56-8.06,5.05,9.46c5.7,10.66,15.79,18.28,27.61,20.85l11.12,2.42-9.21,4.38c-11.53,5.48-19.87,15.98-22.59,28.44l-2.17,9.96-4.38-9.2c-5.48-11.52-16-19.85-28.48-22.57Z"/>
  <path class="st2" d="M1024.08,169.8l-5.32-1.32,4.72-2.07c6.45-2.83,11.16-8.56,12.7-15.42l.96-4.3,2.56,5.16c2.89,5.81,8.19,10.07,14.5,11.63l5.93,1.47-5.02,2.2c-6.28,2.76-10.92,8.27-12.58,14.92l-1.32,5.31-2.21-5.01c-2.76-6.27-8.28-10.91-14.93-12.57Z"/>
  <path class="st2" d="M891.07,472.42l-7.77-.78,6.24-3.89c8.52-5.31,14.01-14.35,14.78-24.35l.49-6.27,4.67,6.76c5.26,7.62,13.61,12.54,22.83,13.47l8.67.87-6.63,4.13c-8.3,5.17-13.74,13.89-14.72,23.61l-.78,7.77-4.13-6.62c-5.18-8.29-13.9-13.72-23.64-14.7Z"/>
  <line class="st2" x1="906.45" y1="551.37" x2="906.45" y2="578.27"/>
  <line class="st2" x1="895.45" y1="563.49" x2="895.45" y2="590.4"/>
  <line class="st2" x1="884.45" y1="575.62" x2="884.45" y2="602.53"/>
  <line class="st2" x1="873.45" y1="587.75" x2="873.45" y2="614.65"/>
  <path class="st2" d="M866.11,477.73s33.02,6.55,41.98,18.19c10.12,13.14,3.54,21.22,3.54,21.22l-19.73,19.71,6.07,8.59-107.74,110.65-6.58-15.16,12.65-34.86h13.66l10.62-20.21-17.96-17.94v-19.45l16.44-16.17-24.28-20.21,9.1-10.11s34.46,16.95,53.62,12.63c31.36-7.07,8.6-36.88,8.6-36.88Z"/>
  <line class="st2" x1="813.13" y1="550.61" x2="813.13" y2="560.84"/>
  <line class="st2" x1="800.23" y1="629.05" x2="883.69" y2="543.79"/>
  <path class="st2" d="M884.83,496.04s17.07,3.79,14.79,17.81"/>
  <path class="st2" d="M481.7,516.63l-37.94,9.6,7.08,12.17h-140.11s77.14,43.92,74.86,87.62c-2.28,43.71-45.14,29.18-45.14,29.18,0,0,22.38,10.99,27.44,21.09,0,0-88.52-28.29-103.69,52.04"/>
  <path class="st2" d="M974.03,396.64c-4.05-13.86-16.87-23.98-32.05-23.98s-28,10.12-32.05,23.98c-.86,2.97-1.33,6.12-1.33,9.37,0,18.41,14.95,33.34,33.39,33.34s33.39-14.93,33.39-33.34c0-3.25-.47-6.4-1.33-9.37ZM953.05,418.74c-.57,5.6-5.31,9.97-11.07,9.97s-10.5-4.37-11.07-9.97h0c-.04-.38-.06-.76-.06-1.14,0-6.14,4.99-11.12,11.13-11.12s11.13,4.98,11.13,11.12c0,.38-.02.76-.06,1.13h0Z"/>
  <path class="st2" d="M974.03,396.64c-3.02,10.31-10.9,18.55-20.98,22.09.04-.37.06-.75.06-1.13,0-6.14-4.99-11.12-11.13-11.12s-11.13,4.98-11.13,11.12c0,.38.02.76.06,1.13-10.08-3.54-17.96-11.78-20.98-22.09"/>
  <path class="st1" d="M953.11,417.6c0,.38-.02.76-.06,1.13h0c-.57,5.61-5.31,9.98-11.07,9.98s-10.5-4.37-11.07-9.97h0c-.04-.38-.06-.76-.06-1.14,0-6.14,4.99-11.12,11.13-11.12s11.13,4.98,11.13,11.12Z"/>
  <g>
    <g>
      <g>
        <path class="st2" d="M286.73,535.2c-.91-.6-2.04-.8-3.13-.56l-1.42.31c-1.38.3-2.79-.11-3.76-1.09-2.72-2.74-6.59-4.03-10.49-3.52-23.76,3.13-35.58,9.99-37.96,19.78-.25,1.1-.92,2.08-1.86,2.72l-49.72,32.56c-.97.62-2.13.83-3.22.59-9.71-1.87-20.74,6.24-33.43,26.99-2.09,3.41-2.55,7.53-1.24,11.2.47,1.3.25,2.79-.58,3.95l-.86,1.19c-.67.92-.96,2.06-.79,3.17,7.65,51.81,20.44,107.69,46.06,117.48,10.18,3.9,21.75-2.29,24.74-13.01.03-.11.06-.22.08-.34l7.9-37.26c.03-.16.07-.31.12-.46,2.06-6.44,6.29-12.01,11.97-15.73l64.88-42.5h0c5.67-3.71,12.4-5.32,18.99-4.55.16.02.31.05.47.08l36.47,8.2c.11.03.22.04.33.06,10.8,1.69,21.12-6.48,21.9-17.54,1.95-27.86-42.46-63-85.44-91.72ZM261.92,559.86c-2.27-3.61-1.13-8.49,2.54-10.89,3.67-2.41,8.49-1.43,10.76,2.18.05.08.1.16.15.24.13.23.25.46.35.69,1.56,3.48.32,7.75-3.05,9.96-3.08,2.02-6.97,1.65-9.49-.65-.18-.16-.36-.35-.52-.54-.27-.3-.52-.63-.75-.99ZM280.98,575.24c3.68-2.4,8.49-1.43,10.76,2.18.05.08.1.16.15.24.13.23.25.46.35.69,1.56,3.49.32,7.76-3.05,9.97-3.09,2.02-6.98,1.66-9.49-.65-.19-.17-.37-.36-.54-.56-.27-.3-.51-.62-.73-.98-2.27-3.61-1.13-8.48,2.54-10.89ZM256.87,581.71c-2.27-3.61-1.13-8.49,2.54-10.89,3.67-2.41,8.49-1.44,10.76,2.18.05.08.1.16.15.24.13.23.25.46.35.69,1.56,3.48.32,7.76-3.05,9.96-3.08,2.02-6.97,1.65-9.49-.65-.19-.17-.36-.35-.53-.54-.27-.3-.52-.63-.74-.99ZM237.16,588.09c2.35-1.54,5.44-.92,6.89,1.4.12.19.22.38.31.58,0,0,0,.02.01.03.99,2.22.2,4.96-1.95,6.37-1.97,1.28-4.44,1.06-6.05-.39l-.02-.02c-.31-.28-.59-.62-.83-.99-1.45-2.31-.72-5.44,1.63-6.98ZM206.35,614.3c-1.45-2.31-.73-5.43,1.63-6.97,2.36-1.54,5.44-.92,6.9,1.39.11.18.21.37.29.56h0s.01.01.01.03c1.01,2.23.22,4.97-1.94,6.39-1.98,1.29-4.47,1.06-6.08-.42l-.02-.02c-.3-.28-.57-.6-.79-.96ZM160.25,639.97c-4.68-6.37-2.89-15.62,3.98-20.66,6.88-5.05,16.23-3.97,20.91,2.4.3.41.57.82.82,1.25,3.61,6.29,1.64,14.7-4.79,19.42-6.43,4.72-15.05,4.08-19.96-1.25-.33-.36-.66-.75-.95-1.16Z"/>
        <path class="st2" d="M209.84,633.99c-8.75,5.73-11.46,17.34-6.06,25.93s16.87,10.91,25.61,5.19c8.75-5.73,11.46-17.34,6.06-25.93s-16.87-10.91-25.61-5.19"/>
        <path class="st2" d="M224.86,641.36l-3.92,2.57-2.42-3.85c-.68-1.07-2.11-1.37-3.2-.65l-2.9,1.9c-1.09.72-1.43,2.17-.76,3.24l2.42,3.85-3.91,2.56c-1.09.72-1.43,2.17-.76,3.24l1.79,2.85c.68,1.07,2.11,1.36,3.2.65l3.92-2.57,2.42,3.85c.68,1.07,2.11,1.37,3.2.65l2.9-1.9c1.09-.72,1.43-2.17.76-3.24l-2.43-3.86,3.92-2.57c1.09-.72,1.43-2.17.76-3.24l-1.79-2.85c-.68-1.07-2.11-1.35-3.2-.63"/>
        <path class="st2" d="M206.03,573.56c5.03-3.3,11.63-1.96,14.74,2.98s1.55,11.62-3.49,14.92c-5.03,3.3-11.63,1.96-14.74-2.98-3.11-4.94-1.55-11.62,3.49-14.92"/>
        <path class="st2" d="M275.22,551.15c.05.08.1.16.15.24.13.23.25.46.35.69,1.56,3.48.32,7.75-3.05,9.96-3.08,2.02-6.97,1.65-9.49-.65-.18-.16-.36-.35-.52-.54-.27-.3-.52-.63-.75-.99-2.27-3.61-1.13-8.49,2.54-10.89,3.67-2.41,8.49-1.43,10.76,2.18Z"/>
        <path class="st2" d="M282.1,565.3c-2.27-3.61-1.13-8.49,2.54-10.89,3.67-2.41,8.49-1.43,10.76,2.18.05.08.1.16.15.24.13.23.25.46.35.69,1.56,3.48.32,7.75-3.05,9.96-3.08,2.02-6.97,1.65-9.49-.65-.18-.16-.36-.35-.52-.54-.27-.3-.52-.63-.75-.99Z"/>
        <path class="st2" d="M295.41,556.59c.05.08.1.16.15.24.13.23.25.46.35.69,1.56,3.48.32,7.75-3.05,9.96-3.08,2.02-6.97,1.65-9.49-.65-.18-.16-.36-.35-.52-.54-.27-.3-.52-.63-.75-.99-2.27-3.61-1.13-8.49,2.54-10.89,3.67-2.41,8.49-1.43,10.76,2.18Z"/>
        <path class="st2" d="M270.17,573c.05.08.1.16.15.24.13.23.25.46.35.69,1.56,3.48.32,7.76-3.05,9.96-3.08,2.02-6.97,1.65-9.49-.65-.19-.17-.36-.35-.53-.54-.27-.3-.52-.63-.74-.99-2.27-3.61-1.13-8.49,2.54-10.89,3.67-2.41,8.49-1.44,10.76,2.18Z"/>
        <path class="st2" d="M244.05,589.49c.12.19.22.38.31.58,0,0,0,.02.01.03.99,2.22.2,4.96-1.95,6.37-1.97,1.28-4.44,1.06-6.05-.39l-.02-.02c-.31-.28-.59-.62-.83-.99-1.45-2.31-.72-5.44,1.63-6.98,2.35-1.54,5.44-.92,6.89,1.4Z"/>
        <path class="st2" d="M214.87,608.72c.11.18.21.37.29.56h0s.01.01.01.03c1.01,2.23.22,4.97-1.94,6.39-1.98,1.29-4.47,1.06-6.08-.42l-.02-.02c-.3-.28-.57-.6-.79-.96-1.45-2.31-.73-5.43,1.63-6.97,2.36-1.54,5.44-.92,6.9,1.39Z"/>
        <path class="st2" d="M291.74,577.42c.05.08.1.16.15.24.13.23.25.46.35.69,1.56,3.49.32,7.76-3.05,9.97-3.09,2.02-6.98,1.66-9.49-.65-.19-.17-.37-.36-.54-.56-.27-.3-.51-.62-.73-.98-2.27-3.61-1.13-8.48,2.54-10.89,3.68-2.4,8.49-1.43,10.76,2.18Z"/>
        <path class="st2" d="M276.85,627.41c-3.96,2.59-8.65,3.08-12.7,1.72-1.18-.39-2.3-.93-3.34-1.64-.71-.46-1.34-1.06-1.91-1.73-.72-.82-1.36-1.76-1.96-2.71-.67-1.07-5.83-13.2,4.58-20.03,6.86-4.49,16.1-2.81,20.33,3.93.57.91.95,1.73,1.23,2.66.08.28.15.57.22.87,1.77,8.15-1.94,13.97-6.45,16.93Z"/>
        <path class="st2" d="M279.63,632.08c-3.96,2.59-8.65,3.08-12.7,1.73-1.18-.39-2.3-.94-3.34-1.64-1.58-1.05-2.79-2.73-3.87-4.44-.14-.22-.47-.93-.82-1.97.57.67,1.2,1.27,1.91,1.73,1.04.71,2.16,1.25,3.34,1.64,4.05,1.36,8.74.87,12.7-1.72,4.5-2.96,8.22-8.78,6.45-16.93-.07-.3-.14-.59-.22-.87.57.61,1.08,1.28,1.54,2.01.75,1.19,1.17,2.22,1.46,3.54,1.77,8.14-1.94,13.97-6.45,16.92Z"/>
      </g>
      <path class="st2" d="M185.14,621.71c.3.41.57.82.82,1.25,3.61,6.29,1.64,14.7-4.79,19.42-6.43,4.72-15.05,4.08-19.96-1.25-.33-.36-.66-.75-.95-1.16-4.68-6.37-2.89-15.62,3.98-20.66,6.88-5.05,16.23-3.97,20.91,2.4Z"/>
    </g>
    <path class="st2" d="M306.98,624.12c-11.94,4.31-56.6,33.5-78.76,48.78-18.93,13.05-20.82,24.59-20.97,27.68-.07,1.54-.15,3.09-.28,4.63-3.74,45.22-20.99,44.91-20.99,44.91,9.5,2.1,19.48-3.93,22.22-13.78l.08-.31,7.9-37.26c.03-.16.07-.31.12-.46,2.05-6.44,6.3-12.01,11.97-15.73l64.89-42.5h0c5.67-3.71,12.4-5.32,18.99-4.55.16.02.31.04.46.08l36.47,8.2.33.06c7.19,1.13,14.16-2.11,18.25-7.66-40.84-2.49-48.73-16.41-60.67-12.1Z"/>
  </g>
  <path class="st2" d="M399.63,632.46l50.07-18.57-76.25-40.17s35.66,29.94,26.18,58.74Z"/>
  <line class="st2" x1="466.78" y1="655.58" x2="412.91" y2="760.55"/>
  <polygon class="st2" points="954.19 307.19 953.19 315.1 950.65 313.15 946.84 310.22 951.25 308.4 954.19 307.19"/>
  <polygon class="st2" points="954.2 307.18 953.2 315.09 950.65 313.15 946.84 310.22 951.25 308.4 954.2 307.18"/>
  <g>
    <path class="st2" d="M958.01,159.13c0,18.34-14.87,33.19-33.23,33.19s-33.23-14.85-33.23-33.19c0-12.18,6.58-22.83,16.37-28.6.01,0,.02,0,.02-.01,2.62-2.37,4.69-3.8,5.54-6.19,1.85-5.28-.22-11.04-.22-11.04h.38c2.53,2.4,6.58,3.96,11.14,3.96s8.51-1.52,11.04-3.87c-.39,1.26-1.73,6.17-.11,10.73.83,2.39,2.92,3.83,5.54,6.19,10.02,5.7,16.77,16.48,16.77,28.83Z"/>
    <path class="st2" d="M938.66,107.45c0,2.23-1.05,4.3-2.84,5.94-2.53,2.35-6.53,3.87-11.04,3.87s-8.61-1.57-11.14-3.96c-1.72-1.63-2.73-3.66-2.73-5.85,0-2.91,1.78-5.52,4.63-7.32v4c0,.08.01.15.03.23.01.07.05.14.08.19.01.02.02.06.05.08.03.06.07.11.13.17.07.08.15.16.24.24.15.13.34.26.56.37.34.21.79.39,1.3.56.14.05.29.09.43.13.17.05.35.1.54.15.19.05.39.09.59.13.19.05.39.08.59.11h.01c.19.05.4.08.62.1.45.07.9.11,1.38.16.85.08,1.75.13,2.68.13s1.89-.05,2.74-.13c.45-.05.88-.09,1.29-.15.81-.11,1.54-.26,2.2-.43,1.9-.49,3.09-1.21,3.09-2.03v-3.95c2.79,1.81,4.55,4.4,4.55,7.28Z"/>
    <path class="st2" d="M922.11,106.74c-3.8-.33-6.57-1.37-6.57-2.62v-4s.05-.03.07-.05v4.04c0,1.23,2.73,2.27,6.5,2.62Z"/>
    <path class="st2" d="M934.03,95.76c0,1.04-1.94,1.94-4.82,2.41-1.32.21-2.82.33-4.44.33s-3.18-.13-4.51-.35c-2.82-.47-4.74-1.36-4.74-2.39,0-1.52,4.14-2.74,9.24-2.74s9.25,1.22,9.25,2.74Z"/>
    <path class="st2" d="M934.04,95.76v8.36c0,1.23-2.73,2.27-6.51,2.62-.86.08-1.78.13-2.74.13s-1.83-.05-2.68-.13c-3.8-.33-6.57-1.37-6.57-2.62v-8.36c0,1.03,1.91,1.92,4.74,2.39,1.33.23,2.87.35,4.51.35s3.12-.13,4.44-.33c2.87-.47,4.82-1.37,4.82-2.41Z"/>
    <path class="st2" d="M899.47,159.4s.58,16.45,17.05,24.25"/>
    <path class="st2" d="M894.84,146.48s24.45,16.74,59.23,0c0,0-34.24-11.31-59.23,0Z"/>
  </g>
  <path class="st2" d="M886.64,113.94s4.34,6.57,6.27,12.63c0,0,4.45,1.52,5.42-8.08.97-9.6-.48-19.71,2.9-27.79,3.38-8.08,13.2-12.7,30.4-11.12,16.41,1.52,22.94,17.18,21.98,29.31-.91,11.48,8.89,22.76,15.18,31.33,9.65,13.14,5.31,53.56-26.54,64.67-26.06,9.09-41.5-2.02-46.81-5.05l51.22,31.33h62.59v-15.67"/>
  <line class="st2" x1="947.04" y1="243.28" x2="1045.67" y2="243.28"/>
  <path class="st2" d="M1026.7,279.85v-16.48h-80.04v13.64l-42.87,25.39,23.9,23.87-41.35,10.23s25.04,6.82,31.87,29.56c0,0,44.76-28.04,66.77,24.25"/>
  <line class="st2" x1="946.66" y1="231.16" x2="946.66" y2="263.37"/>
  <line class="st2" x1="957.66" y1="230.91" x2="957.66" y2="262.23"/>
  <g>
    <path class="st2" d="M1142.2,849.05l-111.41,42.31-64.77-170.19,127.06-48.25,58.83,154.56c3.28,8.63-1.06,18.28-9.69,21.57Z"/>
    <rect class="st2" x="991.33" y="705.82" width="111.57" height="74.81" transform="translate(-195.65 420.18) rotate(-20.8)"/>
    <rect class="st2" x="1003.83" y="718.06" width="86.55" height="50.32" transform="translate(-195.65 420.18) rotate(-20.8)"/>
    <polygon class="st2" points="1057.09 825.35 1049.5 828.23 1046.62 820.65 1035.66 824.82 1038.55 832.39 1030.96 835.27 1035.13 846.21 1042.71 843.33 1045.6 850.91 1056.55 846.75 1053.67 839.17 1061.25 836.29 1057.09 825.35"/>
    <ellipse class="st2" cx="1091.05" cy="817.84" rx="7.59" ry="7.59"/>
    <ellipse class="st2" cx="1118.02" cy="807.59" rx="7.59" ry="7.59"/>
    <line class="st2" x1="1039.39" y1="887.2" x2="1046.42" y2="871.56"/>
    <line class="st2" x1="1053.01" y1="882.03" x2="1060.04" y2="866.39"/>
    <line class="st2" x1="1066.62" y1="876.86" x2="1073.65" y2="861.22"/>
    <line class="st2" x1="1080.23" y1="871.69" x2="1087.26" y2="856.05"/>
    <line class="st2" x1="1079.4" y1="781.48" x2="1075.95" y2="789.14"/>
    <line class="st2" x1="1088.7" y1="777.95" x2="1085.25" y2="785.61"/>
    <line class="st2" x1="1098" y1="774.41" x2="1094.55" y2="782.08"/>
    <line class="st2" x1="1107.3" y1="770.88" x2="1103.86" y2="778.54"/>
    <line class="st2" x1="1116.6" y1="767.35" x2="1113.16" y2="775.01"/>
    <line class="st2" x1="1125.91" y1="763.81" x2="1122.46" y2="771.48"/>
  </g>
  <polyline class="st2" points="1180.72 511.58 1133.85 617.68 1103.82 571.45 1095.76 637.39 1013.73 527.49 1053.28 663.16 1001.29 644.59 1004.7 684.38 901.9 678.69 953.67 714.69 893.61 749.56 983.7 782.91 863.58 833.68 978.57 835.2 889.22 936.76 1016.66 883.71 1014.46 913.26 1035.98 891.37"/>
  <path class="st2" d="M1080.57,594.95l-115.07-145.26s21.75-13.14,22.76-32.59l20.23,2.02,11,14.4s-18.97,20.08-13.28,37.89l21.62,40.93-48.18-60.63s15.17-11.75,17.45-23.87"/>
  <g>
    <ellipse class="st2" cx="744.99" cy="760.29" rx="52.87" ry="34.6"/>
    <ellipse class="st6" cx="777.93" cy="745.6" rx="3.52" ry="3.66"/>
    <ellipse class="st6" cx="713.25" cy="745.6" rx="3.52" ry="3.66"/>
    <path class="st2" d="M727.72,782.37s-18.51-12.94-5.7-27.59c0,0,4.98-1.7,9.26,0,4.27,1.7,11.04,8.86,20.65,5.45,9.61-3.41,12.46-7.83,17.09-6.81,4.63,1.02,12.46,11.24,4.63,20.43-7.83,9.2-24.92,21.12-45.93,8.51Z"/>
    <path class="st2" d="M729.28,755.3s-4.77,7.54-.79,9.13c3.97,1.59,8.34-5.16,8.34-5.16,0,0-1.85,8.2,1.99,9.26,3.84,1.06,7.55-6.09,7.55-6.09,0,0,0,9,5.03,8.2,5.03-.79,5.03-10.85,5.03-10.85,0,0,4.37,6.88,7.55,4.9,3.18-1.98,1.99-7.01,1.06-9"/>
    <path class="st2" d="M728.53,782.53s15.93-11.56,34.71-.19"/>
  </g>
  <path class="st2" d="M673.53,774.95s9.1,38.65,69.42,38.65c44.38,0,60.32-14.78,69.42-35.24,9.1-20.46-2.28-36.38-2.28-36.38l55.76-55.71"/>
  <line class="st2" x1="913.66" y1="748.04" x2="960.19" y2="764.21"/>
  <g>
    <path class="st1" d="M884.29,797.37c.02,2.8-2.08,5.08-4.66,5.08h-3.34c-2.57,0-4.66-2.26-4.66-5.04v-5.41h-24.32c-1.3,0-2.46.57-3.3,1.48-.84.91-1.36,2.17-1.36,3.56,0,2.78-2.09,5.04-4.67,5.04h-4.98c-2.56,0-4.65-2.24-4.66-5.01l-.23-36.07v-.25c0-8.54,2.87-16.74,7.99-22.83,5.47-6.51,12.71-9.77,19.97-9.77s14.28,3.15,19.73,9.47c2.48,2.88,4.46,6.25,5.86,9.92,1.55,4.07,2.4,8.5,2.42,13.04l.07,11.98.16,24.81Z"/>
    <path class="st2" d="M884.13,772.56c-.72.16-1.46.24-2.22.24h-17.3c-6.45,0-11.69-5.66-11.69-12.63,0-3.49,1.3-6.65,3.42-8.93,2.12-2.29,5.04-3.7,8.26-3.7h17.03c1.55,4.07,2.4,8.5,2.42,13.04l.07,11.98Z"/>
  </g>
  <g>
    <path class="st2" d="M715.86,66.66c.01,2.23-1.66,4.05-3.72,4.05h-2.66c-2.05,0-3.72-1.8-3.72-4.02v-4.31h-19.37c-1.03,0-1.96.45-2.63,1.18-.67.73-1.08,1.73-1.08,2.84,0,2.21-1.67,4.02-3.72,4.02h-3.97c-2.04,0-3.7-1.78-3.72-3.99l-.18-28.74v-.2c0-6.8,2.29-13.34,6.36-18.19,4.36-5.19,10.13-7.78,15.91-7.78s11.38,2.51,15.72,7.54c1.98,2.29,3.55,4.98,4.67,7.9,1.24,3.24,1.91,6.77,1.93,10.39l.06,9.54.13,19.77Z"/>
    <path class="st2" d="M715.73,46.89c-.58.13-1.16.19-1.77.19h-13.79c-5.14,0-9.31-4.51-9.31-10.06,0-2.78,1.04-5.3,2.73-7.11,1.69-1.82,4.02-2.95,6.58-2.95h13.56c1.24,3.24,1.91,6.77,1.93,10.39l.06,9.54Z"/>
  </g>
  <polyline class="st2" points="313.27 521.18 345.64 521.18 355.25 511.58 462.48 511.58"/>
  <g>
    <path class="st2" d="M1111.85,539.91c-30.63-16.13-39.94-67.74-43-84.7-.07-.39-.14-.76-.2-1.11.83.44,1.65.93,2.45,1.47l2.67,1.84c.55.38,1.25-.22.95-.82l-1.44-2.91c-.36-.74-8.66-17.16-21.96-18.62-2.28-11.56-11.89-20.75-16.02-24.24-1.25-1.06-3-1.26-4.46-.51l-3.72,1.9c-1.01.51-1.83,1.37-2.17,2.45-.49,1.59.01,3.26,1.23,4.31,11,9.42,11.06,16.57,10.89,18.25l-.1.02-.29.22c-.57.45-13.98,11.13-13.89,26.24l.02,2.67c0,.55.7.78,1.03.35l1.63-2.12c.38-.5.89-1.12,1.48-1.83.25-.3.74-.13.74.27,0,4.16.47,8.6,1.45,13.28,3.17,15.1,11.38,31.66,23.13,46.61,15.93,20.27,45.76,36.15,64.75,42.3,7.91,2.56,13.62,3.37,16.3,2.24,3.05-1.28,5.98-3.05,6.01-6.29.02-3.51-3.29-8.52-27.49-21.26Z"/>
    <path class="st2" d="M1116.81,558.06c-11.97-5.86-39.6-17.18-55.13-36.47-14.55-18.06-23.68-39.34-26.79-54.2"/>
  </g>
  <path class="st2" d="M949.32,472.93s-24.28,6.06-21.24,43.2"/>
  <path class="st2" d="M962.97,491.12s-24.28-.76-22.76,25.77"/>
  <path class="st2" d="M774.18,411.54s7.08,5.56,10.12,13.14"/>
  <g>
    <path class="st2" d="M985.35,327.62c-1.48-.17-2.83.88-3.02,2.37l-2.48,19.57c-.19,1.49-1.55,2.55-3.05,2.36l-8.44-1.07c1.49.19,2.86-.87,3.06-2.36l2.47-19.57c.19-1.49,1.56-2.55,3.05-2.36l8.41,1.06Z"/>
    <polygon class="st2" points="986.82 315.38 979.47 318.41 980.47 310.51 986.82 315.38"/>
    <path class="st2" d="M986.14,299.91c-.18,1.48.85,2.83,2.33,3.04l-8.4-1.06c-1.49-.19-2.56-1.55-2.37-3.05l2.48-19.57c.18-1.49-.86-2.84-2.34-3.05l8.42,1.06c1.49.19,2.56,1.55,2.37,3.05l-2.48,19.57Z"/>
    <path class="st2" d="M1002.2,307.44l-2.44,19.26c-.19,1.49-1.56,2.55-3.05,2.36l-8.4-1.07c1.48.16,2.82-.88,3.01-2.37l2.44-19.25c.19-1.48-.85-2.83-2.32-3.04l8.4,1.06c1.49.18,2.56,1.55,2.36,3.05Z"/>
    <path class="st2" d="M950.65,313.15l-3.81-2.92,4.41-1.82,2.94-1.21-1,7.91-2.54-1.95ZM963.53,345.77l-.21.27-3.04-7.35,4.08.51,3.84.49-4.67,6.07ZM971.69,280.81l.05.14,2.99,7.21-3.84-.49-4.08-.51,4.88-6.34ZM979.47,318.41l1-7.9,6.35,4.87-7.36,3.03Z"/>
    <polygon class="st2" points="968.2 339.7 963.53 345.77 963.32 346.04 960.28 338.7 964.36 339.21 968.2 339.7"/>
    <polygon class="st2" points="986.82 315.38 979.47 318.41 980.47 310.51 986.82 315.38"/>
    <polygon class="st2" points="974.73 288.15 970.89 287.67 966.81 287.15 971.69 280.81 971.74 280.94 974.73 288.15"/>
    <polygon class="st2" points="968.2 339.7 963.53 345.77 963.32 346.04 960.28 338.7 964.36 339.21 968.2 339.7"/>
    <polygon class="st2" points="974.73 288.15 970.89 287.66 966.81 287.15 971.68 280.8 971.74 280.94 974.73 288.15"/>
    <path class="st2" d="M991.43,303.33s-.03-.01-.05-.01l-2.92-.37-8.4-1.06c-1.49-.19-2.56-1.55-2.37-3.05l2.48-19.57c.18-1.49-.86-2.84-2.34-3.05,0,0-.01,0-.02,0l-2.67-.34-8.44-1.07c-1.49-.19-2.86.87-3.05,2.36l-2.48,19.57c-.19,1.47-1.51,2.52-2.98,2.37-.02,0-.05,0-.07,0l-2.95-.37-8.37-1.06c-1.49-.18-2.86.87-3.05,2.36l-2.44,19.26c-.19,1.49.87,2.86,2.37,3.05l8.4,1.06,2.92.37s.01,0,.02,0c1.49.2,2.53,1.55,2.34,3.04l-2.47,19.57c-.19,1.5.86,2.86,2.37,3.05l8.42,1.06,2.7.34c1.49.19,2.86-.87,3.06-2.36l2.47-19.57c.19-1.49,1.56-2.55,3.05-2.36l8.41,1.06,2.92.37s.03,0,.04,0c1.48.16,2.82-.88,3.01-2.37l2.44-19.25c.19-1.48-.85-2.83-2.32-3.04Z"/>
  </g>
  <path class="st2" d="M910.12,337.52s9.61,4.04,15.68,13.89"/>
  <path class="st2" d="M931.36,332.46s4.05,8.34,1.01,16.42"/>
  <path class="st2" d="M946.53,332.97s1.26,10.11-4.3,14.65"/>
  <path class="st2" d="M1068.43,400.17s-6.83,8.34,3.03,15.92c9.86,7.58,25.8,13.64,28.07,23.49,2.28,9.85-3.03,34.86,4.55,39.41"/>
  <path class="st2" d="M1053.11,31.24c-11.87-8.5-27.53-7-34.97,3.37-4.33,6.03-4.91,13.74-2.3,20.8-4.73-2.05-9.96-3.19-15.45-3.19-4.62,0-9.05.81-13.16,2.28,2.52-7.01,1.9-14.62-2.38-20.59-7.44-10.36-23.09-11.87-34.97-3.37-11.87,8.5-15.47,23.8-8.04,34.16,5.32,7.41,14.84,10.29,24.18,8.22-2.85,5.4-4.47,11.56-4.47,18.09,0,21.43,17.39,38.8,38.84,38.8s38.84-17.37,38.84-38.8c0-6.48-1.59-12.59-4.41-17.96,9.99,3.05,20.59.33,26.32-7.65,7.44-10.36,3.84-25.66-8.04-34.16Z"/>
  <path class="st2" d="M993.07,180.13c-18.21,23.75-1.52,39.92-1.52,39.92h-37.43l-8.6-6.57s19.73-5.56,31.36-22.74,6.07-51.03,6.07-51.03c0,0,28.33,13.14,55.64-8.08,27.31-21.22,12.14-49.01,12.14-49.01,0,0,19.73,4.55,26.3-14.65,6.58-19.2,4.55-39.41-10.62-50.02"/>
  <path class="st2" d="M994.08,170.02l-1.01-18.19s18.21,2.53,28.83-3.54c5.82-3.32-.88,6.78-10.12,13.64-7.63,5.67-17.7,8.08-17.7,8.08Z"/>
  <path class="st2" d="M443.53,820.94s11.03,1.51,11.79-7.42c1.01-11.81-20.09-6.25-23.86-3.03-6.55,5.6-6.95,23.61,10.21,24.89,17.16,1.29,31.95-15.2,27.85-31.2-4.1-16-42.62-15.22-62.66,3.08-20.04,18.3-34.49,46.31-10.38,53.85,24.11,7.54,70.22,2.7,70.22,2.7"/>
  <path class="st2" d="M418.49,797.43s-7.48-10.36.56-15.58c8.04-5.22,32.11-1.18,32.11-1.18,0,0,5.21-28.51,40.48-24.73,35.27,3.78,21.51,29.68,7.32,37.8-18.5,10.59-27.98-20.78-5.21-12.95"/>
  <path class="st2" d="M500.75,855.2s19.52-4.13,24.65-16.46-11.61-11.6-11.61-11.6c0,0,9.08,3,11.65-8.09,2.57-11.09-4-18.83-4-18.83,0,0,31.55-38.65,38.79-31.05,7.24,7.6-2.12,14.86,5.08,18.95,7.2,4.1,66.76-10.27,66.76-10.27,0,0-44.73,3.41-46.86-2.02-2.29-5.84,12.78-9.38,12.78-9.38,0,0-10.99,1.27-15.66-5.82-7.07-10.73-12.27-16.38-23.71-13.95-11.45,2.42-49.35,39.26-49.35,39.26"/>
  <line class="st2" x1="644.32" y1="440.72" x2="592.72" y2="440.72"/>
  <path class="st2" d="M700.21,474.69s-16.69,9.6-11.13,26.27"/>
  <line class="st2" x1="621.3" y1="581.31" x2="657.21" y2="650.53"/>
  <line class="st2" x1="615.23" y1="601.52" x2="642.55" y2="669.73"/>
  <path class="st2" d="M612.2,584.34c-14.67-23.75-5.56-36.88-5.56-36.88l7.59,19.2"/>
  <path class="st2" d="M585.39,738.44s1.01,12.63,16.69,15.16"/>
  <path class="st2" d="M608.66,701.56s-8.6,25.26,7.59,41.43"/>
  <path class="st2" d="M609.16,796.55s-18.71-1.52-38.44,4.04c-19.73,5.56-23.27-12.63-23.27-12.63l-15.43,10.48s20.11,14.4,4.93,29.18c0,0,24.66,21.98-18.59,44.34l51.59-10.23-10.62-12.88,24.28-44.34,25.54-7.96Z"/>
  <path class="st2" d="M1045.67,269.05s17.45,16.67,12.9,32.59"/>
  <path class="st2" d="M1055.53,264.51s12.14,4.55,17.45,11.37"/>
  <path class="st2" d="M1040.36,224.72s7.97-18.95,18.97-18.95"/>
  <path class="st2" d="M1027.08,220.17s15.55-32.59,42.87-39.79"/>
  <path class="st2" d="M705.26,825.85s48.05,10.61,80.93-.51c32.88-11.12,32.37-24.76,32.37-24.76,0,0,9.1,17.18,22.76,24.76,0,0-3.03,13.64,4.05,18.19,7.08,4.55,94.59,3.03,94.59,3.03l-91.55,48-141.63-25.77-1.52-42.95Z"/>
  <polygon class="st2" points="895.83 764.34 895.83 805.26 951.21 784.8 895.83 764.34"/>
  <path class="st2" d="M880.27,688.93l-20.74,25.77s19.29,3.54,26.05,18.19l35.28-18.95-40.59-25.01Z"/>
  <path class="st2" d="M982.95,604.55s26.3,4.55,36.92,18.19"/>
  <path class="st2" d="M1019.88,583.83s-1.52,13.14,3.54,23.24"/>
  <line class="st2" x1="992.56" y1="583.83" x2="1008.75" y2="602.53"/>
  <path class="st2" d="M1064.64,325.89s9.86-25.77,6.83-34.86c0,0,6.83,3.79,13.66-4.55,6.83-8.34-5.31-27.28-5.31-27.28,0,0,14.5-16.74,12.14-28.04-3.79-18.19-22-17.43-22-17.43,0,0,22-26.53,15.93-46.99-6.07-20.46-26.55-6.06-34.9-17.43-8.35-11.37,3.03-11.37,12.14-24.25s7.59-32.59,7.59-32.59c0,0,13.66-7.58,18.97-19.71,5.31-12.13,7.59-56.84-8.35-72.76"/>
  <polyline class="st2" points="1153.41 156.38 1086.14 206.91 1105.36 161.94 1065.4 138.19 1103.84 103.33 1082.6 96.76 1108.39 82.61 1102.32 7.33 1158.47 50.27"/>
  <polyline class="st2" points="1120.78 199.33 1090.44 213.73 1121.54 230.4 1092.71 261.47 1109.4 262.23 1082.09 310.74 1142.79 331.96"/>
  <polyline class="st2" points="1132.91 376.02 1095.46 394.49 1119.99 413.86"/>
  <path class="st2" d="M946.53,11.37s-17.77,9.14-20.74,33.85c-1.52,12.63,1.52,23.75,1.52,23.75,0,0-26.81.51-32.37,12.13"/>
  <path class="st2" d="M981.43,13.39s16.19,12.63,18.21,27.79c0,0,12.14-31.83,29.34-32.34"/>
  <polygon class="st1" points="955.13 619.71 923.77 649.52 966.77 652.55 955.13 619.71"/>
  <path class="st2" d="M795.3,10.61l-9.86,31.07,18.97,33.35h27.31s9.1-14.4,22.76-12.88"/>
  <g>
    <path class="st2" d="M902.88,8.18c-4.6-2.91-10.09-4.11-15.51-3.51-7.58.83-18.55,3.88-23.45,14.19-7.86,16.56-6.25,20.44,1.38,22.32,7.63,1.88,16.79.96,20.56,1.38,3.78.42,10.62,5.24,16.05,6.48,5.43,1.23,9.84,1,12.52-3.91,2.68-4.91,2.63-17.49-2.07-27.07-2.18-4.44-6.01-7.68-9.49-9.88Z"/>
    <g>
      <path class="st2" d="M863.39,42.43s-6.78,12,8.07,18c0,0-5.75-13.74,1.84-17.38"/>
      <path class="st2" d="M907.81,50.4s2.18,13.61-13.84,14.07c0,0,10.4-9.86,4.55-15.91"/>
      <path class="st2" d="M876.43,43.57s-2,6.83,4.16,11.14c0,0,.15-11.52,3.81-11.89"/>
      <path class="st2" d="M896.32,47.14s-.51,7.1-7.79,9c0,0,3.88-10.85.57-12.47"/>
    </g>
    <ellipse class="st2" cx="890.14" cy="21.22" rx="4.86" ry="3.6" transform="translate(711.22 893.45) rotate(-79.77)"/>
    <ellipse class="st2" cx="903.9" cy="34.42" rx="4.86" ry="3.6" transform="translate(709.55 917.85) rotate(-79.77)"/>
    <ellipse class="st2" cx="873.28" cy="28.93" rx="4.86" ry="3.6" transform="translate(689.78 883.2) rotate(-79.77)"/>
  </g>
  <path class="st2" d="M799.47,29.69s-3.79,11.37,2.66,21.22c6.45,9.85,13.66,7.58,13.66,7.58"/>
  <path class="st2" d="M816.16,20.36s-10.24,17.81,1.9,29.56"/>
  <path class="st2" d="M830.58,29.21s-8.35,8.34-3.03,20.08"/>
  <path class="st2" d="M825.65,65.18s7.21-11.75,21.24-12.51"/>
  <polyline class="st2" points="988.39 533.18 967.27 555.54 982.95 571.2 895.45 658.61 982.7 664.67 978.15 617.31 1032.01 635.49"/>
  <line class="st2" x1="547.96" y1="601.52" x2="558.58" y2="590.91"/>
  <line class="st2" x1="547.96" y1="613.64" x2="558.58" y2="603.03"/>
  <line class="st2" x1="548.96" y1="625.77" x2="559.58" y2="615.16"/>
  <line class="st2" x1="548.96" y1="637.89" x2="559.58" y2="627.28"/>
  <line class="st2" x1="773.55" y1="210.44" x2="756.35" y2="212.97"/>
  <line class="st2" x1="595" y1="156.38" x2="577.8" y2="158.91"/>
  <line class="st2" x1="587.91" y1="165.47" x2="570.71" y2="168"/>
  <line class="st2" x1="579.81" y1="174.57" x2="562.62" y2="177.09"/>
  <line class="st2" x1="769" y1="220.55" x2="751.8" y2="223.07"/>
  <line class="st2" x1="764.44" y1="230.65" x2="747.25" y2="233.18"/>
  <line class="st2" x1="759.89" y1="240.76" x2="742.69" y2="243.28"/>
  <line class="st2" x1="755.34" y1="250.86" x2="738.14" y2="253.39"/>
  <g>
    <ellipse class="st2" cx="414.07" cy="657.85" rx="6.41" ry="6.41"/>
    <path class="st2" d="M394.95,668.91s-9.46,5.37-12.99,5.05c-1.28-.12-3.14-2.02-1.68-3.72,2.56-2.99,10.38-6.63,13.83-7.93,2.9-1.09,14.53,6.47,19.09,9.55,1.2.81,2.15,1.92,2.77,3.23l3.65,7.76s7.46-3.08,10.02-1.16-3.21,7.69-13.79,7.37l-6.74-12.5-6.74,11.85,5.13,15.7s-2.25,15.7-8.34,16.34.64-15.06.64-16.98-2.89-11.53-2.89-11.53l-10.58,11.21c-1.71,1.48-4.97,2.38-6.74.96-2.72-2.18-12.14-7.92-11.55-10.89,1.28-6.41,13.79,3.52,13.79,3.52,0,0,17.96-20.51,17.96-24.03s-4.85-3.8-4.85-3.8Z"/>
  </g>
  <path class="st2" d="M784.3,400.93s3.79,7.2,3.03,13.26"/>
  <line class="st2" x1="370.8" y1="359.62" x2="442.31" y2="368.34"/>
  <polyline class="st2" points="481.19 553.77 496.37 552.76 501.43 572.46 516.35 569.43 522.42 597.47 537.84 593.68 537.72 666.95 604.48 656.72"/>
  <g>
    <g>
      <path class="st2" d="M103.06,816.86c-12.27,1.16-21.27,12.04-20.11,24.29l6.5,68.5c1.16,12.25,12.05,21.25,24.32,20.09l21.35-2.02-10.71-112.88-21.35,2.02Z"/>
      <path class="st2" d="M289.81,799.18l-21.35,2.02,10.71,112.88,21.35-2.02c12.27-1.16,21.27-12.04,20.11-24.29l-6.5-68.5c-1.16-12.25-12.05-21.25-24.32-20.09Z"/>
      <rect class="st2" x="129.44" y="807.76" width="144.7" height="113.39" transform="translate(-80.74 22.92) rotate(-5.42)"/>
    </g>
    <path class="st2" d="M117.46,847.88c.07.79.07,1.56,0,2.32-.53,5.82-5.15,10.63-11.19,11.2-6.04.57-11.48-3.28-13.09-8.9-.21-.73-.36-1.49-.44-2.28-.65-6.82,4.36-12.88,11.19-13.52,6.83-.65,12.89,4.36,13.54,11.18Z"/>
    <path class="st2" d="M117.9,852.47c.65,6.82-4.37,12.88-11.2,13.53-6.83.65-12.89-4.36-13.53-11.18-.07-.79-.07-1.56,0-2.32,1.61,5.62,7.05,9.47,13.09,8.9,6.04-.57,10.67-5.38,11.19-11.2.21.73.36,1.49.44,2.28Z"/>
    <path class="st2" d="M305.8,830.05c.07.79.07,1.56,0,2.32-.53,5.82-5.15,10.63-11.19,11.2-6.04.57-11.48-3.28-13.09-8.9-.21-.73-.36-1.49-.44-2.28-.65-6.82,4.36-12.88,11.19-13.52s12.89,4.36,13.54,11.18Z"/>
    <path class="st2" d="M306.23,834.64c.65,6.82-4.37,12.88-11.2,13.53-6.83.65-12.89-4.36-13.53-11.18-.07-.79-.07-1.56,0-2.32,1.61,5.62,7.05,9.47,13.09,8.9,6.04-.57,10.67-5.38,11.19-11.2.21.73.36,1.49.44,2.28Z"/>
    <ellipse class="st2" cx="103.44" cy="893.84" rx="6.55" ry="6.54"/>
    <ellipse class="st2" cx="117.8" cy="910.64" rx="6.55" ry="6.54"/>
    <ellipse class="st2" cx="304.14" cy="874.84" rx="6.55" ry="6.54"/>
    <ellipse class="st2" cx="293.2" cy="894.03" rx="6.55" ry="6.54"/>
    <rect class="st2" x="111.52" y="821.03" width="7.7" height="1.54" transform="translate(-76.94 14.53) rotate(-5.41)"/>
    <rect class="st2" x="275.61" y="805.5" width="7.7" height="1.54" transform="translate(-74.74 29.93) rotate(-5.41)"/>
    <path class="st2" d="M264.48,910.47l-115.77,10.96c-4.71.45-8.9-3.01-9.35-7.72l-8.14-85.77c-.45-4.71,3.01-8.89,7.73-9.34l115.77-10.96c4.71-.45,8.9,3.01,9.35,7.72l8.14,85.77c.45,4.71-3.01,8.89-7.73,9.34Z"/>
    <line class="st2" x1="124.25" y1="813.42" x2="129.04" y2="812.96"/>
    <line class="st2" x1="135.75" y1="812.33" x2="140.54" y2="811.88"/>
  </g>
  <path class="st2" d="M205.78,557.05l15.93-10.23s8.73-13.26,22-18.57c0,0,21.24-7.96,42.87-1.52"/>
  <line class="st2" x1="311.62" y1="530.53" x2="433.02" y2="530.53"/>
  <line class="st2" x1="358.66" y1="520.29" x2="433.77" y2="520.29"/>
  <path class="st2" d="M425.55,274.11s-3.31,19.73-11.13,22.74"/>
  <path class="st2" d="M434.15,287.75s-5.24,9.23-10.62,12.13"/>
  <path class="st2" d="M452.87,133.64s13.66,11.12,16.69,18.19"/>
  <path class="st2" d="M471.58,130.11s3.54,4.04,3.54,13.14"/>
  <path class="st2" d="M647.1,279.41l36.67,1.52s-12.39-23.24-5.56-39.16c0,0-11.89-2.02-18.97-10.11l-12.14,47.75Z"/>
  <path class="st2" d="M557.57,103.83s32.88-39.92,53.62-47.49c20.74-7.58,38.95,5.05,42.99,9.6,0,0-9.1-41.43,15.17-60.13"/>
  <polygon class="st2" points="669.86 85.64 693.63 92.72 686.04 80.59 669.86 85.64"/>
  <path class="st2" d="M179.99,762.44s23.14,5.68,33-8.72c9.86-14.4,4.55-51.16,21.62-62.53s69.04-43.96,70.18-43.96"/>
  <g>
    <path class="st2" d="M384.54,730.51c-18.21-22.96-46.55-30.83-63.3-17.57-16.76,13.26-15.58,42.62,2.63,65.58,18.21,22.96,46.55,30.83,63.3,17.57,16.75-13.26,15.58-42.62-2.63-65.58ZM373.63,781.04c-5.85,4.63-19.66-3.04-30.84-17.14-11.18-14.1-15.49-29.28-9.64-33.91,5.85-4.63,19.66,3.04,30.84,17.14,11.18,14.1,15.49,29.28,9.64,33.91Z"/>
    <path class="st6" d="M341.67,720.35c-5.51,1.59-10.59,6.35-10.17,12.4-.39,10.01,4.32,19.62,10.28,27.46,6.11,8.06,13.96,14.68,22.2,20.57,6.58,3.29,15.39,2.82,21.03-3.17-4.89,7.08-14.74,8.69-22.38,5.29-13.62-7.78-26.34-19.15-31.74-34.28-1.77-4.71-2.79-11.82-1.93-15.75.12-6.89,6.15-11.97,12.71-12.51h0Z"/>
    <path class="st2" d="M342.79,763.91c-11.18-14.1-15.49-29.28-9.64-33.91,5.85-4.63,19.66,3.04,30.84,17.14,11.18,14.1,15.49,29.28,9.64,33.91-5.85,4.63-19.66-3.04-30.84-17.14"/>
    <path class="st6" d="M318.87,749.95c-2.16-1.23-3.1-3.84-3.92-6.07-1.37-4.44-1.73-9.35-.47-13.88,2.11-7.51,7.09-14.73,14.76-17.39,3.54-1.15,7.12-1.75,10.8-1.65,1.2.07,2.5.17,3.53.82-2.31-.31-4.59.58-6.78,1.22-2.2.69-4.36,1.55-6.36,2.51-3.88,1.92-6.98,5.16-9.23,8.86-2.2,3.74-4,7.93-4.35,12.33-.31,3.34-.22,6.84.57,10.14.31,1.09.65,2.2,1.45,3.1h0Z"/>
  </g>
  <path class="st2" d="M400.26,731.87s12.14-1.52,14.16-20.21"/>
  <path class="st2" d="M406.33,741.98s10.12-3.54,12.14-7.58"/>
  <path class="st2" d="M346.65,697.01s-49.57-15.66-57.16,44.46l-63.23,32.84,93.07,14.65s3.54,27.28,51.09,30.32c0,0-18.46,38.15,4.81,57.35"/>
  <path class="st2" d="M406.59,796.29s-11.38,7.33-16.94,17.94"/>
  <path class="st2" d="M413.42,776.08s3.79-5.81,13.66-3.54"/>
  <path class="st2" d="M487.64,746.53s13.66-1.52,24.66,7.96"/>
  <path class="st2" d="M543.79,744.25s10.24-8.72,20.49-7.2"/>
  <path class="st2" d="M647.1,765.22s-4.55,20.21-14.16,25.77"/>
  <path class="st2" d="M657.72,775.33s-2.74,10.23-10.12,14.65"/>
  <path class="st2" d="M153.68,583.58s12.9-13.14,25.29-14.65"/>
  <path class="st2" d="M102.35,577.01s16.44,4.8,21.24,15.92"/>
  <path class="st2" d="M406.59,640.93s-10.87,2.53-11.13,13.14"/>
  <path class="st2" d="M433.14,651.79s4.05,4.55,0,14.4"/>
  <path class="st2" d="M455.4,654.57s-11.89,29.56-29.34,58.86"/>
  <polygon class="st2" points="497.88 663.16 456.16 735.92 506.99 710.15 497.88 663.16"/>
  <polyline class="st2" points="485.24 604.04 389.14 559.58 462.98 561.09"/>
  <g>
    <polygon class="st1" points="173.52 782.02 173.52 799.68 167.91 799.68 167.91 785.61 162.54 785.61 162.54 800.83 154.95 800.83 154.95 793.66 137.87 793.66 137.87 800.83 130.29 800.83 130.29 785.61 124.91 785.61 124.91 799.68 119.3 799.68 119.3 782.02 126.06 775.27 130.29 775.27 130.29 767.75 134.9 767.75 127.81 758.8 136.23 758.8 143.31 767.75 149.52 767.75 156.6 758.8 165.02 758.8 157.92 767.75 162.54 767.75 162.54 775.27 166.76 775.27 173.52 782.02"/>
    <rect class="st6" x="139.24" y="776.56" width="3.23" height="8.54"/>
    <rect class="st7" x="149.95" y="776.56" width="3.23" height="8.54"/>
  </g>
  <g>
    <polygon class="st2" points="583.1 47.99 583.1 65.66 577.49 65.66 577.49 51.59 572.11 51.59 572.11 66.81 564.52 66.81 564.52 59.64 547.45 59.64 547.45 66.81 539.87 66.81 539.87 51.59 534.49 51.59 534.49 65.66 528.88 65.66 528.88 47.99 535.64 41.25 539.87 41.25 539.87 33.73 544.48 33.73 537.39 24.78 545.81 24.78 552.89 33.73 559.09 33.73 566.17 24.78 574.6 24.78 567.49 33.73 572.11 33.73 572.11 41.25 576.34 41.25 583.1 47.99"/>
    <rect class="st7" x="548.82" y="42.54" width="3.23" height="8.54"/>
    <rect class="st7" x="559.53" y="42.54" width="3.23" height="8.54"/>
  </g>
  <path class="st3" d="M593.86,16.67l7.97,26.15s23.9-6.82,37.56,0c0,0-2.28-26.15,7.97-38.65"/>
  <path class="st3" d="M606.38,11.37l4.55,15.54s9.86-3.03,16.31,0l5.69-20.08"/>
  <path class="st2" d="M422.48,93.94c2.73,6.49,8.31,10.93,15.4,12.18,8.3,1.46,19.62.91,26.2-10.15,11.27-18.97,4.9-36.81,13.77-46.21,8.87-9.4,21.04-11.74,21.04-11.74,0,0-23.43-5.64-31.53,6.46,0,0,19.63-30.16,49.68-26.85,0,0-42.26-16.14-69.56,18.63,0,0-.08-9.28,5.83-15.55,0,0-46.4,36.12-30.82,73.23Z"/>
  <path class="st2" d="M1001.97,374.71c-.35,6.47,2.11,12.72,6.79,17.2,5.48,5.24,13.87,10.37,22.58,4.87,14.93-9.43,16.69-26.66,26.47-29.71,9.78-3.05,19.42,1.08,19.42,1.08,0,0-14.94-15.98-25.12-10.41,0,0,24.98-14.16,45.53,3.24,0,0-24.81-33.54-56.99-19.52,0,0,3.26-7.37,9.77-9.41,0,0-46.48,5.7-48.46,42.66Z"/>
  <path class="st2" d="M487.26,75.79s2.66-20.46,17.83-25.01"/>
  <line class="st2" x1="511.54" y1="65.56" x2="521.78" y2="77.31"/>
  <path class="st2" d="M495.61,30.69s11-7.96,25.04-4.17"/>
  <polygon class="st2" points="522.92 612.38 524.44 725.31 502.44 632.84 472.85 633.6 522.92 612.38"/>
  <line class="st2" x1="433.39" y1="568.42" x2="491.82" y2="594.95"/>
  <polygon class="st2" points="534.3 718.48 569.96 680.59 581.34 698.02 588.17 667.71 540.37 676.04 534.3 718.48"/>
  <path class="st2" d="M141.59,704.33s12.13,23.87-13.26,38.65"/>
  <path class="st2" d="M135.9,747.15s15.92-3.03,17.81-11.37"/>
</svg>