<?xml version="1.0" encoding="UTF-8"?>
<svg id="Calque_1" xmlns="http://www.w3.org/2000/svg" version="1.1" viewBox="0 0 50 50">
  <!-- Generator: Adobe Illustrator 29.8.2, SVG Export Plug-In . SVG Version: 2.1.1 Build 3)  -->
  <defs>
    <style>
      .st0 {
        fill: #ffe5c9;
      }

      .st1 {
        fill: #d8d9ff;
      }
    </style>
  </defs>
  <path d="M39.14,12.14c.47.5-.15.49-.41.61-.53.24-2.12.45-2.38.84-.12.85-.5,4.08.35,4.36,4.1-.5,6.47,1.82,5.6,5.97-.13.62-1.01,1.65-1.01,1.82,0,.26.6.52.45,1.39-.22,1.25-2.26,1.25-2.31,3.89-.05,2.83.97,1.65,1.86,1.91,1.16.34.53,1.57-.08,2.18-1.39,1.37-9.24,6.32-11.01,6.54-3.92.47-8.55-.28-12.55.03-.67.03-.74.6-.73,1.17-1.95-.87-2.16-1.04-4.09,0-.06-1.62-1.01-1.03-2.21-1.45-3.92-1.37-3.8-5.77-1.3-8.49-2.93-1.37-.15-1.92.31-2.54.69-.94.71-3.47.12-4.47-.5-.83-1.97-.38-1.55-1.85.18-.63,1.83-1.56,2.43-1.97,1.23-.82,5.92-3.18,6.5-3.88.63-.76.35-2.44.35-3.4-.22-.26-5.42-1.56-6.41-2.22-.37-.25-.32-.33,0-.59.84-.67,5.8-2.31,7.16-2.78,1.52-.52,5.38-2.05,6.74-2.05,1.11,0,5.09,1.58,6.44,2.05,1.01.35,7.46,2.63,7.74,2.93ZM37.68,12.14l-12.72-4.39c-1.56.24-12.7,3.85-12.72,4.54l12.42,4.54,9.8-3.51c-3.01-.34-6.24-.26-9.22-.58-.44-.05-.9-.06-1.01-.59,2.19.01,4.39.15,6.58.29,2.06.14,5.38,1.3,6.87-.29ZM35.63,17.69v-4.09c-2.76.95-3.68.67-3.22,4.1h3.22ZM31.83,15.06c-.35-.37-5.97,2.35-7.16,2.35-1.1,0-6.26-2.41-6.58-2.06l-.45,5.55c2.15,2.79,12.28,2.76,14.19.44.95-1.15-.37-4.72,0-6.28ZM35.63,18.27h-3.22c.45,2.17.72,2.92-1.31,4.1-2.81,1.64-8.54,1.5-11.55.42-2.44-.87-2.38-1.43-2.49-3.94l-8.31,5.14c-.56,1.77,3.36.72,4.2.69,4.45-.14,12.15-.46,16.32.37,3.45.68,3.16,5.67-1.68,6.09-5.79.49-12.27-.39-18.14-.01l-.6.28-.13.89c5.47-.19,11.06.27,16.52,0,1.27-.06,3.45-.16,4.61-.36,1.54-.26,3.33-1.61,4.6-2.5.76-1.5-.06-5.16.59-6.3.16-.28.94-.24.58-1.37l-5.12,2.92c-.2.06-.21-.3-.14-.43.35-.67,4.31-2.59,5.22-3.12l.05-2.88ZM37.39,27.34c2.89-1.05,5.69-3.37,4.24-6.73-1.09-2.52-2.76-1.87-4.98-2.27l-.38.41-.04,1.57,2.63-.87c-.49.93-2.48,1.15-2.65,2.2-.18,1.11.74,1.26.89,2.04.11.59.02,3.36.3,3.65ZM10.19,30.56h18.57c.18,0,1.55-.9,1.75-1.18.72-.98.63-2.61-.44-3.35-.29-.2-1.94-.74-2.19-.74H10.62c-.71.63.18,1.72.15,2.77-.02.86-.52,1.65-.59,2.5ZM34.78,33.16c.66.26,2.28.36,2.56-.45.17-.47-.57-7.16-.84-7.42l-1.19.47-.54,7.4ZM37.68,29.68c.65-.6,3.29-1.87,3.47-2.53l-.4-.98c-1.46.86-3.66,1.53-3.06,3.51ZM39.14,29.68l-1.43.78.22,2.98c-1.23.43-3.73.89-3.91-.84-3.23,1.57-4.9,2.32-3.65,6.43.42.3,8.47-4.9,8.8-5.4.53-.8-.86-2.74-.03-3.96ZM12.53,40.22c-5.04-.71-4.35-5.72.72-6.16,5.21-.45,12.22.49,17.25-.3,1.01-.16,4.99-2.1,3.96-3.49-1.1.44-2.01,1.26-3.11,1.71-4.03,1.66-14.13.49-18.98.91-6.14.53-5.56,8.38.16,8.2v-.87ZM16.91,40.21c-.16.24,0,1.03.48,1.11,4.13-1.03,11.18.87,14.82-.88,1.72-.82,7.03-4.31,8.48-5.55.81-.7,1.35-1.24-.18-1.37l-10.07,6.33c-1.68.27-13.12-.26-13.54.36ZM29.78,34.36l-17.37.32c-3.87.52-3.59,4.74.12,4.95l.28-3.38,4.11-.13c.15.79-.41,3.18.48,3.47l12.39-.25c-.4-1.7-.4-3.27,0-4.97ZM16.33,36.7h-3.22v5.26c1.48-.47,1.72-.72,3.22,0v-5.26Z"/>
  <path class="st1" d="M35.63,18.27l-.05,2.88c-.91.53-4.86,2.45-5.22,3.12-.07.13-.06.5.14.43l5.12-2.92c.36,1.13-.42,1.09-.58,1.37-.66,1.14.17,4.8-.59,6.3-1.27.88-3.05,2.24-4.6,2.5-1.16.19-3.34.3-4.61.36-5.46.27-11.05-.19-16.52,0l.13-.89.6-.28c5.87-.38,12.35.5,18.14.01,4.84-.41,5.13-5.4,1.68-6.09-4.17-.83-11.87-.51-16.32-.37-.85.03-4.76,1.08-4.2-.69l8.31-5.14c.11,2.51.05,3.07,2.49,3.94,3.02,1.08,8.75,1.22,11.55-.42,2.03-1.18,1.76-1.93,1.31-4.1h3.22Z"/>
  <path class="st0" d="M37.68,12.14c-1.5,1.59-4.81.43-6.87.29-2.18-.15-4.39-.28-6.58-.29.11.53.58.55,1.01.59,2.98.32,6.21.23,9.22.58l-9.8,3.51-12.42-4.54c.02-.69,11.16-4.3,12.72-4.54l12.72,4.39Z"/>
  <path class="st0" d="M10.19,30.56c.08-.85.57-1.64.59-2.5.03-1.04-.86-2.13-.15-2.77h17.26c.25,0,1.9.53,2.19.74,1.07.74,1.15,2.37.44,3.35-.2.28-1.57,1.18-1.75,1.18H10.19Z"/>
  <path class="st0" d="M31.83,15.06c-.37,1.57.95,5.13,0,6.28-1.91,2.32-12.04,2.35-14.19-.44l.45-5.55c.32-.36,5.48,2.06,6.58,2.06,1.19,0,6.81-2.72,7.16-2.35Z"/>
  <path class="st0" d="M29.78,34.36c-.4,1.7-.4,3.27,0,4.97l-12.39.25c-.89-.29-.33-2.68-.48-3.47l-4.11.13-.28,3.38c-3.71-.21-3.99-4.42-.12-4.95l17.37-.32Z"/>
  <path class="st1" d="M12.53,40.22v.87c-5.72.18-6.29-7.67-.16-8.2,4.84-.42,14.95.75,18.98-.91,1.1-.45,2.01-1.27,3.11-1.71,1.02,1.39-2.95,3.33-3.96,3.49-5.03.79-12.04-.15-17.25.3-5.08.44-5.76,5.44-.72,6.16Z"/>
  <path class="st1" d="M37.39,27.34c-.28-.29-.19-3.07-.3-3.65-.15-.78-1.07-.93-.89-2.04.17-1.05,2.16-1.26,2.65-2.2l-2.63.87.04-1.57.38-.41c2.23.39,3.9-.25,4.98,2.27,1.45,3.35-1.35,5.68-4.24,6.73Z"/>
  <path class="st1" d="M16.91,40.21c.42-.62,11.86-.09,13.54-.36l10.07-6.33c1.54.13.99.67.18,1.37-1.45,1.25-6.77,4.73-8.48,5.55-3.64,1.75-10.69-.16-14.82.88-.47-.09-.64-.87-.48-1.11Z"/>
  <path class="st0" d="M39.14,29.68c-.83,1.21.57,3.16.03,3.96-.33.5-8.38,5.7-8.8,5.4-1.25-4.11.42-4.86,3.65-6.43.17,1.73,2.67,1.26,3.91.84l-.22-2.98,1.43-.78Z"/>
  <path class="st1" d="M16.33,36.7v5.26c-1.49-.72-1.74-.47-3.22,0v-5.26h3.22Z"/>
  <path class="st0" d="M34.78,33.16l.54-7.4,1.19-.47c.27.26,1.01,6.95.84,7.42-.29.81-1.91.71-2.56.45Z"/>
  <path class="st1" d="M37.68,29.68c-.6-1.98,1.6-2.65,3.06-3.51l.4.98c-.18.66-2.82,1.93-3.47,2.53Z"/>
</svg>