<?xml version="1.0" encoding="UTF-8"?>
<svg id="Calque_1" xmlns="http://www.w3.org/2000/svg" version="1.1" viewBox="0 0 113.19 65.54">
  <!-- Generator: Adobe Illustrator 29.8.1, SVG Export Plug-In . SVG Version: 2.1.1 Build 2)  -->
  <defs>
    <style>
      .st0 {
        fill: none;
      }

      .st0, .st1, .st2, .st3 {
        stroke: #000;
        stroke-miterlimit: 10;
        stroke-width: .75px;
      }

      .st1, .st4 {
        fill: #d8d9ff;
      }

      .st2 {
        fill: #ffe5c9;
      }

      .st3 {
        fill: #fff;
      }
    </style>
  </defs>
  <rect class="st2" x="18.51" y="9.19" width="65.19" height="52.95" rx="5.94" ry="5.94"/>
  <rect class="st3" x="21.66" y="12.47" width="58.88" height="46.83" rx="2.68" ry="2.68"/>
  <polygon class="st3" points="82.19 2.25 58.09 2.25 58.09 11.4 66.52 11.4 65.61 13.44 68.44 11.4 82.19 11.4 82.19 2.25"/>
  <polygon class="st2" points="89.08 16.89 89.08 24.99 83.69 28.59 89.08 28.59 89.08 37.64 113.19 37.64 113.19 16.89 89.08 16.89"/>
  <line class="st0" x1="38.52" y1="17.91" x2="38.52" y2="54.52"/>
  <line class="st0" x1="25.25" y1="17.91" x2="35.01" y2="17.91"/>
  <line class="st0" x1="25.25" y1="22.05" x2="35.01" y2="22.05"/>
  <line class="st0" x1="25.25" y1="26.2" x2="35.01" y2="26.2"/>
  <line class="st0" x1="25.25" y1="30.34" x2="35.01" y2="30.34"/>
  <line class="st0" x1="25.25" y1="34.49" x2="35.01" y2="34.49"/>
  <line class="st0" x1="25.25" y1="38.63" x2="35.01" y2="38.63"/>
  <line class="st0" x1="25.25" y1="42.77" x2="35.01" y2="42.77"/>
  <line class="st0" x1="25.25" y1="46.92" x2="35.01" y2="46.92"/>
  <line class="st0" x1="25.25" y1="51.06" x2="35.01" y2="51.06"/>
  <line class="st0" x1="27.73" y1="55.21" x2="35.01" y2="55.21"/>
  <g>
    <path class="st3" d="M0,53.35c0,1.26,1.02,2.29,2.29,2.29h24.1c1.26,0,2.29-1.02,2.29-2.29v-15.71H0v15.71Z"/>
    <g>
      <path class="st4" d="M26.39,33.06H2.29c-1.26,0-2.29,1.02-2.29,2.29v2.29h28.68v-2.29c0-1.26-1.02-2.29-2.29-2.29Z"/>
      <path class="st0" d="M26.39,33.06H2.29c-1.26,0-2.29,1.02-2.29,2.29v2.29h28.68v-2.29c0-1.26-1.02-2.29-2.29-2.29Z"/>
    </g>
  </g>
  <rect class="st1" x="42.2" y="17.91" width="34.68" height="12.03"/>
  <rect class="st1" x="42.2" y="33.06" width="8.9" height="8.9"/>
  <rect class="st1" x="42.2" y="45.62" width="23.44" height="8.9"/>
  <line class="st3" x1="54.41" y1="33.06" x2="76.88" y2="33.06"/>
  <line class="st3" x1="54.41" y1="35.29" x2="76.88" y2="35.29"/>
  <line class="st3" x1="54.41" y1="37.51" x2="76.88" y2="37.51"/>
  <line class="st3" x1="54.41" y1="39.74" x2="76.88" y2="39.74"/>
  <line class="st3" x1="54.41" y1="41.96" x2="76.88" y2="41.96"/>
  <rect class="st1" x="73.83" y="39.16" width="20.75" height="7.93"/>
  <polygon points="92.16 33.16 100.17 27.37 105.85 32.55 110.11 29.26 110.11 35.3 92.16 35.3 92.16 33.16"/>
  <circle cx="106.04" cy="23.43" r="1.78"/>
  <rect class="st0" x="92.16" y="19.55" width="17.95" height="15.41"/>
  <polyline class="st3" points="18.8 43.82 23.53 47.1 18.8 50.07"/>
  <polyline class="st3" points="8.87 50.07 4.14 46.79 8.87 43.82"/>
  <line class="st3" x1="15.7" y1="41.96" x2="11.97" y2="51.06"/>
  <polygon points="26.63 12.47 31.77 9.19 48.75 8.66 43.96 12.47 26.63 12.47"/>
  <polygon points="65.64 59.3 62.42 62.14 74.52 62.14 77.86 59.3 65.64 59.3"/>
  <g>
    <path d="M80.67,45.4c-.65,0-1.16-.2-1.52-.61s-.55-.98-.55-1.71.19-1.34.57-1.76.9-.63,1.57-.63c.39,0,.77.07,1.13.2l-.11.37c-.39-.13-.73-.2-1.02-.2-.56,0-.98.17-1.26.52s-.43.84-.43,1.48c0,.61.14,1.09.43,1.44s.69.52,1.2.52c.41,0,.79-.07,1.15-.22v.38c-.29.14-.67.21-1.14.21Z"/>
    <path d="M85.73,44.14c0,.41-.15.72-.46.94s-.75.33-1.31.33c-.61,0-1.09-.09-1.44-.28v-.45c.46.23.94.34,1.44.34.45,0,.79-.07,1.02-.22s.35-.35.35-.59c0-.23-.09-.42-.28-.58s-.49-.31-.91-.46c-.45-.16-.77-.31-.96-.42s-.32-.25-.42-.4-.14-.33-.14-.54c0-.34.14-.61.43-.81s.68-.3,1.2-.3.95.09,1.39.28l-.15.38c-.45-.18-.86-.28-1.24-.28s-.66.06-.88.18-.33.29-.33.51c0,.24.08.43.25.57s.5.3.99.48c.41.15.71.28.89.4s.33.25.42.4.14.33.14.53Z"/>
    <path d="M89.72,44.14c0,.41-.15.72-.46.94s-.75.33-1.31.33c-.61,0-1.09-.09-1.44-.28v-.45c.46.23.94.34,1.44.34.45,0,.79-.07,1.02-.22s.35-.35.35-.59c0-.23-.09-.42-.28-.58s-.49-.31-.91-.46c-.45-.16-.77-.31-.96-.42s-.32-.25-.42-.4-.14-.33-.14-.54c0-.34.14-.61.43-.81s.68-.3,1.2-.3.95.09,1.39.28l-.15.38c-.45-.18-.86-.28-1.24-.28s-.66.06-.88.18-.33.29-.33.51c0,.24.08.43.25.57s.5.3.99.48c.41.15.71.28.89.4s.33.25.42.4.14.33.14.53Z"/>
  </g>
  <g>
    <path d="M66.89,8.81v-2.14c0-.33-.07-.57-.21-.72s-.36-.23-.65-.23c-.39,0-.68.1-.87.3s-.27.52-.27.97v1.82h-.3v-4.72h.3v1.5l-.02.42h.02c.12-.2.28-.34.47-.43s.42-.13.7-.13c.75,0,1.12.4,1.12,1.2v2.16h-.3Z"/>
    <path d="M69.12,8.61c.19,0,.36-.02.5-.05v.24c-.15.05-.31.07-.5.07-.29,0-.51-.08-.64-.23s-.21-.4-.21-.73v-2.13h-.49v-.18l.49-.14.15-.75h.15v.8h.97v.26h-.97v2.09c0,.25.04.44.13.56s.23.18.42.18Z"/>
    <path d="M74.45,8.81v-2.16c0-.32-.06-.56-.19-.7s-.32-.22-.58-.22c-.34,0-.59.09-.75.28s-.24.48-.24.88v1.93h-.31v-2.25c0-.56-.25-.83-.76-.83-.35,0-.6.1-.76.3s-.24.52-.24.97v1.82h-.3v-3.3h.25l.06.45h.02c.09-.16.22-.29.39-.38s.35-.13.55-.13c.52,0,.85.2,1,.59h.01c.11-.19.25-.33.43-.43s.39-.15.62-.15c.36,0,.63.1.81.29s.27.5.27.92v2.16h-.3Z"/>
    <path d="M76.12,8.81h-.3v-4.72h.3v4.72Z"/>
  </g>
  <path class="st3" d="M22.83,1.69c-2.79,0-5.19,1.61-6.36,3.94-.25-.04-.5-.08-.76-.08-2.27,0-4.17,1.46-4.88,3.49-.1,0-.2-.03-.31-.03-1.91,0-3.46,1.55-3.46,3.46s1.55,3.46,3.46,3.46h12.31c3.93,0,7.12-3.19,7.12-7.12s-3.19-7.12-7.12-7.12Z"/>
  <path class="st3" d="M79.59,56.38c1.46,0,2.73.84,3.34,2.07.13-.02.26-.04.4-.04,1.19,0,2.19.77,2.56,1.83.05,0,.11-.02.16-.02,1,0,1.82.81,1.82,1.82,0,1-.81,1.82-1.82,1.82h-6.46c-2.06,0-3.74-1.67-3.74-3.74s1.67-3.74,3.74-3.74Z"/>
</svg>