<?xml version="1.0" encoding="UTF-8"?>
<svg id="Calque_1" xmlns="http://www.w3.org/2000/svg" version="1.1" viewBox="0 0 70 70">
  <!-- Generator: Adobe Illustrator 29.8.2, SVG Export Plug-In . SVG Version: 2.1.1 Build 3)  -->
  <defs>
    <style>
      .st0 {
        fill: #ffe5c9;
      }

      .st0, .st1, .st2 {
        stroke: #000;
        stroke-linejoin: round;
      }

      .st3, .st2 {
        fill: #d8d9ff;
      }

      .st1 {
        fill: none;
      }
    </style>
  </defs>
  <polygon class="st0" points="105.35 -105.22 105.35 -52.15 140.26 -52.15 144.1 -41.98 148.24 -52.15 166.29 -52.15 166.29 -105.22 105.35 -105.22"/>
  <rect class="st2" x="108.67" y="-101.75" width="54.31" height="46.71"/>
  <g>
    <path d="M125.13-97.1c4.23,2.69,1.21,8.93-3.39,7.59-7.41-.35-2.97-11.41,3.39-7.59Z"/>
    <path d="M118.83-86.27c2.2.05,6.63-1.08,7.6.32.51,6.29.28,12.98,0,19.39,2.32,5.68-4.4,3.77-7.92,4.04.3-7.72-.61-16.58.32-23.75Z"/>
    <path d="M144.53-86.76c7.35-2.64,12.37,7.44,10.34,13.74.86,6.65,1.46,12.4-7.11,10.5-2.57-1.53,1.33-28.53-8.7-13.99-1.51,4.15,3.46,15.6-4.22,13.99-5.57,1.31-4.02-3.16-4.36-7.08.38-5.36-.25-10.93.32-16.67,2.18.01,9.22-1.95,8.24,2.22,1.3-1.34,3.61-3.41,5.5-2.71Z"/>
  </g>
  <path class="st0" d="M24.58,65.52s-8.77,1.11-4.66-13.32,17.2-25.41,13.09-33.95-7.19-8.12-6.7-10.5,10.58-.07,16.24,7.99.11,24.15-1.55,30.03,4.04,19.77,4.04,19.77l-20.46-.02Z"/>
  <path class="st3" d="M33.01,18.29c4.11,8.54-8.99,19.53-13.09,33.95-4.11,14.43,4.66,13.32,4.66,13.32h14.13s-.09-.02-.14-.04c-8.21-2.71-6.32-18.82-3.77-26.7s5.1-19.3,0-25.37c-5.1-6.06-8.49-5.66-8.49-5.66-.49,2.37,2.59,1.95,6.7,10.5Z"/>
  <path class="st1" d="M24.58,65.52s-8.77,1.11-4.66-13.32,17.2-25.41,13.09-33.95-7.19-8.12-6.7-10.5,10.58-.07,16.24,7.99.11,24.15-1.55,30.03,4.04,19.77,4.04,19.77l-20.46-.02Z"/>
  <g>
    <ellipse class="st0" cx="19.82" cy="57.42" rx="2.33" ry="3.57"/>
    <ellipse class="st0" cx="18.4" cy="57.42" rx="2.33" ry="3.57"/>
    <path class="st0" d="M18.4,55.46s-.85,1.81,0,3.45"/>
  </g>
  <g>
    <ellipse class="st0" cx="30.32" cy="58.57" rx="2.33" ry="3.57" transform="translate(-4.85 2.78) rotate(-4.86)"/>
    <ellipse class="st0" cx="28.91" cy="58.69" rx="2.33" ry="3.57" transform="translate(-4.86 2.66) rotate(-4.86)"/>
    <path class="st0" d="M28.75,56.74s-.69,1.88.29,3.44"/>
  </g>
  <g>
    <ellipse class="st0" cx="22.74" cy="46.38" rx="3.57" ry="2.33" transform="translate(-28.43 53.48) rotate(-71.78)"/>
    <ellipse class="st0" cx="21.4" cy="45.94" rx="3.57" ry="2.33" transform="translate(-28.93 51.9) rotate(-71.78)"/>
    <path class="st0" d="M22.01,44.08s-1.37,1.45-1.08,3.28"/>
  </g>
  <g>
    <ellipse class="st0" cx="31.94" cy="47.81" rx="3.57" ry="2.33" transform="translate(-19.73 73.03) rotate(-82.27)"/>
    <ellipse class="st0" cx="30.54" cy="47.62" rx="3.57" ry="2.33" transform="translate(-20.76 71.48) rotate(-82.27)"/>
    <path class="st0" d="M30.8,45.68s-1.08,1.68-.46,3.42"/>
  </g>
  <g>
    <ellipse class="st0" cx="28.33" cy="35.28" rx="3.57" ry="2.33" transform="translate(-14.05 51.16) rotate(-71.78)"/>
    <ellipse class="st0" cx="26.98" cy="34.84" rx="3.57" ry="2.33" transform="translate(-14.55 49.58) rotate(-71.78)"/>
    <path class="st0" d="M27.59,32.98s-1.37,1.45-1.08,3.28"/>
  </g>
  <g>
    <ellipse class="st0" cx="35.86" cy="36.94" rx="3.57" ry="2.33" transform="translate(-11.44 57.26) rotate(-69.1)"/>
    <ellipse class="st0" cx="34.54" cy="36.43" rx="3.57" ry="2.33" transform="translate(-11.82 55.7) rotate(-69.1)"/>
    <path class="st0" d="M35.24,34.6s-1.44,1.39-1.23,3.23"/>
  </g>
  <g>
    <ellipse class="st0" cx="33.47" cy="23.41" rx="2.33" ry="3.57" transform="translate(-4.54 8.47) rotate(-13.51)"/>
    <ellipse class="st0" cx="32.09" cy="23.74" rx="2.33" ry="3.57" transform="translate(-4.66 8.15) rotate(-13.51)"/>
    <path class="st0" d="M31.63,21.84s-.4,1.96.81,3.36"/>
  </g>
  <g>
    <ellipse class="st0" cx="30.02" cy="14.21" rx="2.33" ry="3.57" transform="translate(-2.89 18.69) rotate(-33.08)"/>
    <ellipse class="st0" cx="28.84" cy="14.99" rx="2.33" ry="3.57" transform="translate(-3.51 18.17) rotate(-33.08)"/>
    <path class="st0" d="M27.77,13.35s.28,1.98,1.88,2.89"/>
  </g>
  <path class="st2" d="M36.27,9.77l5.76-2.5-.9,6.66s-2.98-3.07-4.85-4.15Z"/>
  <polygon class="st0" points="37.75 10.79 40.11 9.85 39.5 12.35 37.75 10.79"/>
  <path class="st2" d="M29.79,6.81l4.64-4.23,1.29,6.59s-3.81-1.95-5.93-2.37Z"/>
  <polygon class="st0" points="31.52 7.3 33.45 5.65 33.68 8.21 31.52 7.3"/>
</svg>