<?xml version="1.0" encoding="UTF-8"?>
<svg id="Calque_1" xmlns="http://www.w3.org/2000/svg" version="1.1" viewBox="0 0 70 70">
  <!-- Generator: Adobe Illustrator 29.8.2, SVG Export Plug-In . SVG Version: 2.1.1 Build 3)  -->
  <defs>
    <style>
      .st0, .st1 {
        fill: #ffe5c9;
      }

      .st0, .st1, .st2 {
        stroke: #000;
        stroke-linejoin: round;
      }

      .st1 {
        stroke-width: .25px;
      }

      .st2 {
        fill: #d8d9ff;
      }
    </style>
  </defs>
  <path class="st2" d="M68.25,35c0,15.09-10.05,27.83-23.82,31.89-2.99.88-6.15,1.36-9.43,1.36-2.34,0-4.62-.24-6.82-.7C13.09,64.4,1.75,51.03,1.75,35,1.75,16.64,16.64,1.75,35,1.75s33.25,14.89,33.25,33.25Z"/>
  <path class="st0" d="M42.34,51.18c3.64,4.33,1.56,10.58,2.09,15.71-2.99.88-6.15,1.36-9.43,1.36-2.34,0-4.62-.24-6.82-.7-1.43-1-1.23-4.73-1.12-6.89-7.5,1.8-10.71-1.7-13.76-7.79-.84-1.29-3.55-1.63-2.75-3.38,1-.24,1.84-.24,2.56-.05.13.03.25.07.38.12.2.07.39.16.58.26.17.09.34.19.5.3,0,0,0,0,0,0,.12.08.23.16.34.25.04.03.08.07.12.1.31.26.6.56.87.87.09.1.18.21.27.32.09.11.18.22.27.33.11.14.22.28.33.43h0c.13.18.26.35.39.52.02.03.04.06.07.09.2.26.41.53.62.78.04.05.09.1.13.16.41.48.84.93,1.32,1.32.04.03.08.06.11.09.32.24.67.46,1.04.62.01,0,.02.02.04.02h0s.09.04.14.06l.61.3s.06.02.1.02c.1.03.2.05.29.07s.19.04.28.06c.16.03.32.06.47.09,4.42.78,4.65-1.92,6.81-5.3-13.18-.3-20.56-16.27-12.27-26.37-.26-2.41-1-7.16.65-9.43.78-.52,2.77.07,3.66.33,1.54.45,5.41,3.03,5.97,3.07,4.95-1.47,12.23-1.29,17.13,0,1.62-.12,6.96-5.19,9.78-3.24,1.48,2.39.75,6.84.5,9.26,8.18,10.01,1,26.19-12.27,26.22Z"/>
  <g>
    <ellipse class="st1" cx="21.17" cy="56.81" rx=".71" ry="1.09" transform="translate(-37.59 41.86) rotate(-55.29)"/>
    <ellipse class="st1" cx="21.42" cy="56.46" rx=".71" ry="1.09" transform="translate(-37.19 41.91) rotate(-55.29)"/>
    <path class="st1" d="M21.91,56.8s-.31-.53-.87-.6"/>
  </g>
  <g>
    <ellipse class="st1" cx="18.48" cy="54.81" rx=".71" ry="1.09" transform="translate(-37.1 38.79) rotate(-55.29)"/>
    <ellipse class="st1" cx="18.73" cy="54.45" rx=".71" ry="1.09" transform="translate(-36.7 38.84) rotate(-55.29)"/>
    <path class="st1" d="M19.22,54.79s-.31-.53-.87-.6"/>
  </g>
  <g>
    <ellipse class="st1" cx="16.23" cy="52.52" rx=".71" ry="1.09" transform="translate(-33.31 28.68) rotate(-47.13)"/>
    <ellipse class="st1" cx="16.52" cy="52.2" rx=".71" ry="1.09" transform="translate(-32.98 28.8) rotate(-47.13)"/>
    <path class="st1" d="M16.96,52.61s-.23-.57-.77-.72"/>
  </g>
  <g>
    <ellipse class="st1" cx="13.89" cy="50.34" rx=".71" ry="1.09" transform="translate(-37.74 42.54) rotate(-65.99)"/>
    <ellipse class="st1" cx="14.07" cy="49.94" rx=".71" ry="1.09" transform="translate(-37.28 42.47) rotate(-65.99)"/>
    <path class="st1" d="M14.62,50.19s-.4-.46-.96-.43"/>
  </g>
</svg>