<?xml version="1.0" encoding="UTF-8"?>
<svg id="Calque_1" xmlns="http://www.w3.org/2000/svg" version="1.1" viewBox="0 0 70 70">
  <!-- Generator: Adobe Illustrator 29.8.2, SVG Export Plug-In . SVG Version: 2.1.1 Build 3)  -->
  <defs>
    <style>
      .st0 {
        fill: #ffe5c9;
      }

      .st0, .st1 {
        stroke: #000;
        stroke-linejoin: round;
      }

      .st1 {
        fill: #d8d9ff;
      }
    </style>
  </defs>
  <polygon class="st0" points="4.73 3.03 4.73 56.1 39.63 56.1 43.48 66.27 47.62 56.1 65.66 56.1 65.66 3.03 4.73 3.03"/>
  <rect class="st1" x="8.04" y="6.5" width="54.31" height="46.71"/>
  <g>
    <path d="M24.51,11.15c4.23,2.69,1.21,8.93-3.39,7.59-7.41-.35-2.97-11.41,3.39-7.59Z"/>
    <path d="M18.21,21.98c2.2.05,6.63-1.08,7.6.32.51,6.29.28,12.98,0,19.39,2.32,5.68-4.4,3.77-7.92,4.04.3-7.72-.61-16.58.32-23.75Z"/>
    <path d="M43.9,21.49c7.35-2.64,12.37,7.44,10.34,13.74.86,6.65,1.46,12.4-7.11,10.5-2.57-1.53,1.33-28.53-8.7-13.99-1.51,4.15,3.46,15.6-4.22,13.99-5.57,1.31-4.02-3.16-4.36-7.08.38-5.36-.25-10.93.32-16.67,2.18.01,9.22-1.95,8.24,2.22,1.3-1.34,3.61-3.41,5.5-2.71Z"/>
  </g>
</svg>