<?xml version="1.0" encoding="UTF-8"?>
<svg id="Calque_1" xmlns="http://www.w3.org/2000/svg" version="1.1" viewBox="0 0 50 50">
  <!-- Generator: Adobe Illustrator 29.8.2, SVG Export Plug-In . SVG Version: 2.1.1 Build 3)  -->
  <defs>
    <style>
      .st0 {
        fill: #d7dcf1;
      }

      .st1 {
        fill: #fff;
      }

      .st2 {
        fill: #ffe5c9;
      }

      .st3 {
        fill: #020102;
      }
    </style>
  </defs>
  <g>
    <path class="st2" d="M13.94,26.01s-4.84-3.57-4.98,2.86c-.14,6.43,7.11,6.02,7.11,6.02l-2.13-8.88Z"/>
    <path class="st3" d="M10.33,33.24c-1.11-1.07-1.65-2.54-1.61-4.37.04-2.07.58-3.37,1.59-3.86,1.58-.78,3.69.75,3.78.82l.07.05,2.22,9.24-.29.02s-.13,0-.3,0c-.91,0-3.65-.15-5.45-1.89ZM10.52,25.43c-.84.41-1.28,1.57-1.32,3.44-.04,1.69.46,3.04,1.46,4.02,1.65,1.59,4.25,1.75,5.11,1.76l-2.04-8.5c-.36-.24-2.03-1.31-3.21-.72Z"/>
  </g>
  <path class="st3" d="M13.86,36.18c.06,0,.1-.01.14-.03.26-.11.38-.59.35-1.42,0-.13-.11-.23-.25-.23-.13,0-.24.11-.23.25,0,.32-.01.65-.05.84-.19-.4-.04-1.4.15-2.05.04-.13-.04-.26-.16-.3-.13-.04-.26.03-.3.16-.1.34-.56,2.04.05,2.64.11.11.22.14.3.14Z"/>
  <path class="st3" d="M13.03,27.29l.4-.27c-.45-.68-1.68-1.76-3.09-.99l.23.42c1.38-.75,2.42.77,2.47.84Z"/>
  <path class="st0" d="M13.81,27.83s.99,6.38-1.97,5.94c0,0,1.94,1.05,3.47.94l-1.51-6.88Z"/>
  <path class="st3" d="M29.54,6.27l.39-.28c-.09-.12-2.06-2.92-.02-4.95l-.34-.34c-2.32,2.32-.05,5.54-.02,5.57Z"/>
  <path class="st3" d="M11.7,20.51s3.15,7.82,2.99,15.33c-.06,2.74,1.13,5.56,2.8,7.77,2.01,2.66,5.45,5.28,11.16,5.05,11.39-.46,10.4-8.38,10.6-11.04.35-4.87-1.25-13.04.51-16.41,3.04-5.82,1.53-17.31-4.74-18.45-4-.73-5.4,3.2-5.4,3.2,0,0-4.52-1.64-6.99.78-4.24,4.15-4.79,4.46-8.47,7.38-3.68,2.92-2.46,6.41-2.46,6.41Z"/>
  <path class="st3" d="M14.13,26.13l.4-.25c-.06-.09-1.46-2.27-4.5-2.33v.48c2.77.05,4.08,2.08,4.1,2.1Z"/>
  <g>
    <path class="st2" d="M30.62,22.81c.1-1.2,1.16-3.93,1.94-5.82-2.52-1.46-4.96-1.21-6.13-1.12-1.57.12-9.02.68-10.1,10.18s5.64,7.15,8.43,6.18c2.37-.83,4.73-1.65,7.07-1.26l.5-.31c-2.66-1.04-1.71-7.86-1.71-7.86Z"/>
    <path class="st0" d="M37.9,33.61c1.71-1.85.38-10.83-2.84-14.52-.81-.93-1.66-1.61-2.5-2.1-.78,1.88-1.84,4.62-1.94,5.82,0,0-.95,6.82,1.71,7.86l-.5.31c.41.07.82.17,1.22.32,2.74,1.01,3.58,3.67,4.85,2.31Z"/>
  </g>
  <path class="st1" d="M32.56,35.91s-1.02,2.31-5.81,0h5.81Z"/>
  <path class="st3" d="M25.68,22.17c-1.29-.5-2.9-.5-4.21,0-.62.24-1.12.03-1.3-.44-.06.02,0,0,0,0-.19-.47,0-.96.78-1.23,1.62-.55,3.7-.56,5.29.05.76.29.9.73.72,1.18.04.07,0,0,0,0-.18.45-.66.67-1.27.44Z"/>
  <path class="st3" d="M35.8,22.16c-1.15-.5-2.59-.51-3.75,0-.56.24-1,.04-1.16-.44-.05.02,0,0,0,0-.17-.48,0-.98.7-1.24,1.45-.56,3.3-.57,4.71.05.67.29.8.75.64,1.2.04.07,0,0,0,0-.16.46-.59.68-1.14.44Z"/>
  <ellipse class="st3" cx="23.56" cy="25.83" rx="1.07" ry="1.48"/>
  <path class="st3" d="M31.26,25.83c0-.82.48-1.48,1.07-1.48s1.07.66,1.07,1.48-.48,1.48-1.07,1.48-1.07-.66-1.07-1.48Z"/>
  <path class="st0" d="M21.32,28.26s3.14,1.61,5.07,0h-5.07Z"/>
  <path class="st3" d="M31.69,30.43l.33-.35c-2.05-1.96-1.12-7.32-1.11-7.37l-.47-.08c-.04.23-.99,5.67,1.25,7.8Z"/>
</svg>