<?xml version="1.0" encoding="UTF-8"?>
<svg id="Calque_1" xmlns="http://www.w3.org/2000/svg" version="1.1" viewBox="0 0 907.69 440.12">
  <!-- Generator: Adobe Illustrator 29.8.2, SVG Export Plug-In . SVG Version: 2.1.1 Build 3)  -->
  <defs>
    <style>
      .st0 {
        fill: #ffe5c9;
      }

      .st0, .st1, .st2, .st3 {
        stroke-miterlimit: 10;
      }

      .st0, .st1, .st2, .st3, .st4, .st5 {
        stroke: #000;
        stroke-width: 4px;
      }

      .st1 {
        fill: #d8d9ff;
      }

      .st3 {
        fill: #fff;
      }

      .st4 {
        stroke-dasharray: 25.29 25.29;
      }

      .st4, .st5 {
        fill: none;
        stroke-linejoin: round;
      }
    </style>
  </defs>
  <g>
    <path class="st5" d="M654.84,98.56s-3.94,2.01-11.12,5.7"/>
    <path class="st4" d="M621.25,115.86c-114.34,59.26-480.7,252.28-468.5,286.37,19.03,53.18,623.71-279.71,634.1-175.43,11.41,114.49-564.72,97.4-693.07,92.18"/>
    <path class="st5" d="M81.15,318.44c-8.09-.36-12.48-.59-12.48-.59"/>
  </g>
  <path class="st3" d="M636.05,47.49h0c-37.72,0-68.18,30.46-68.18,68.18s30.54,68.18,68.18,68.18h117.87c18.32,0,33.1-14.78,33.1-33.1,0-18.32-14.78-33.1-33.1-33.1-1.07,0-1.98.25-2.97.25-6.77-19.4-25.01-33.35-46.72-33.35-2.39,0-4.87.41-7.18.74-11.23-22.29-34.34-37.72-61-37.72v-.08Z"/>
  <polygon class="st2" points="311.25 257.99 706.64 56.63 318.57 340.36 311.25 257.99"/>
  <polygon class="st0" points="706.64 56.63 336.88 257.99 521.76 311.07 706.64 56.63"/>
  <polygon class="st1" points="407.69 278.32 318.57 340.36 336.88 257.99 407.69 278.32"/>
  <polyline class="st0" points="318.57 340.36 311.25 257.99 227.05 220.06 706.64 56.63 311.25 257.99"/>
  <path class="st3" d="M251.81,183.9c-15.95,0-29.77,9.23-36.49,22.56-1.38-.2-2.86-.44-4.3-.44-12.99,0-23.9,8.34-27.95,19.95-.59,0-1.14-.15-1.78-.15-10.96,0-19.8,8.84-19.8,19.8s8.84,19.8,19.8,19.8h70.51c22.51,0,40.78-18.22,40.78-40.78s-18.22-40.78-40.78-40.78h0v.05Z"/>
</svg>