<?xml version="1.0" encoding="UTF-8"?>
<svg id="Calque_1" xmlns="http://www.w3.org/2000/svg" version="1.1" viewBox="0 0 50 50">
  <!-- Generator: Adobe Illustrator 29.8.2, SVG Export Plug-In . SVG Version: 2.1.1 Build 3)  -->
  <defs>
    <style>
      .st0 {
        fill: #242323;
      }
    </style>
  </defs>
  <path class="st0" d="M12.66,17.22l1.62-5.49c1,.26,2.02-.14,3.05,0l1.39,13.74c-1.06.36-2.04-.32-3.16.31l-.49-3.88-.96,2.51-3.21.22-.75-2.89-.75,3.53-3.21.18,2.14-13.7c.52-.19,2.64-.91,2.95-.52.5.6.9,4.97,1.37,5.98Z"/>
  <path class="st0" d="M44.97,24.82l.15,2.58c-.51.19-1.89,0-2.06.44l-1.56,10.08c-.17.25-2.53-.03-2.92-.17l-2.02-5.5c-.25.03-.26.23-.31.42-.11.46-.39,3.62-.74,3.62h-2.67l1.36-9.54c.22-.33,2.75-.09,3.3-.13l1.96,4.82c.49-1.68.39-4.03.92-5.63.2-.6.81-1,1.43-1h3.15Z"/>
  <path class="st0" d="M24.11,26.62c.15.09.72,2.93.83,3.37.22.05.18-.17.24-.32.18-.5.51-2.27.73-2.5.34-.35,2.48-.39,2.76.03.45.67.47,2.38,1.04,3.12l.91-3.69c.97.03,1.93-.03,2.88.15l-1.93,9.45c-.4.44-2.73.22-3.41.17l-.88-2.68-.74,2.73c-.61-.07-2.62.22-2.98-.14l-2.34-8.96c-.08-.75,2.7-.83,2.89-.71Z"/>
  <path class="st0" d="M5.53,29.2c-.48-.3-1.72.42-2.16-.02-.37-.37-.27-2.28-.4-2.91l7.15-.28c4.63,1.41,4.09,6.53,1.96,9.97-.29.47-1.64,2.3-2.05,2.48-.12.05-2.34.44-2.48.44s-.24-.02-.31-.15c-.54-1.08-1.31-9.25-1.72-9.51ZM9.75,34.03c.09-.08.73-1.96.77-2.22.11-.72.16-2.17-.54-2.61-.2-.13-.94-.28-1.03-.18-.3.32.33,4.12.49,4.77.05.19.04.51.32.24Z"/>
  <path class="st0" d="M16.98,26.63c4.73-.99,6.32,7.87,2.68,10.12-.93.58-1.87.64-2.86.16-3.34-1.61-3.59-9.49.17-10.28ZM17.53,29.52c-.81.47-.69,4.66.55,4.67.83,0,.78-2.22.71-2.81-.06-.49-.58-2.25-1.26-1.86Z"/>
  <path class="st0" d="M32.53,17.55c-.39-1.1-.76-2.11-.13-3.2,2.64-.34,5.32-.33,7.98-.52,1.11.14.21,2.31.54,3.22-.52.31-2.06-.04-2.22.44l.28,7.55c-.12.4-.97.13-1.34.15-.55.02-1.14.28-1.71.05l-.15-.33-.32-7.35h-2.91Z"/>
  <path class="st0" d="M30.59,14l.84,8.13c.18.55,2.75.11,3.35.29l.35,3.05c-1.02.29-2.11.13-3.16.16s-2.59.43-3.52-.35l-.93-10.69c.93-.52,2.05-.31,3.07-.58Z"/>
  <path class="st0" d="M27.67,25.12l-7.79.51c-.59-.97-.41-2.15-.42-3.23l7.8-.47c.21.05.23.2.27.38.05.31.23,2.7.14,2.81Z"/>
  <path class="st0" d="M26.72,17.71l-6.91.05c-.09-.03-.16-.08-.21-.16-.16-.25-.51-2.68-.46-2.86.07-.23.33-.27.55-.27l6.61.03c.21.05.23.2.27.38.14.78.05,2,.16,2.83Z"/>
  <path class="st0" d="M25.42,21.59c-.16.26-5.73.25-6.05.02-.34-.58-.1-1.19-.09-1.72,0-.23-.24-1.53.24-1.53h5.65s.24.23.24.24v2.99Z"/>
</svg>